<svg width="473" height="263" viewBox="0 0 473 263" fill="none" xmlns="http://www.w3.org/2000/svg">
<path d="M5.328 161.008H10.224C10.864 161.008 11.512 161.064 12.168 161.176C12.824 161.272 13.408 161.488 13.92 161.824C14.448 162.144 14.872 162.6 15.192 163.192C15.528 163.768 15.696 164.536 15.696 165.496C15.696 166.36 15.44 167.112 14.928 167.752C14.416 168.392 13.656 168.816 12.648 169.024V169.072C13.208 169.12 13.72 169.256 14.184 169.48C14.648 169.688 15.048 169.976 15.384 170.344C15.72 170.696 15.976 171.12 16.152 171.616C16.344 172.112 16.44 172.656 16.44 173.248C16.44 174.224 16.248 175.024 15.864 175.648C15.496 176.256 15.024 176.736 14.448 177.088C13.888 177.44 13.272 177.68 12.6 177.808C11.944 177.936 11.328 178 10.752 178H5.328V161.008ZM6.912 168.352H10.2C11.016 168.352 11.68 168.256 12.192 168.064C12.704 167.856 13.104 167.608 13.392 167.32C13.68 167.032 13.872 166.728 13.968 166.408C14.064 166.072 14.112 165.768 14.112 165.496C14.112 164.904 14.008 164.416 13.8 164.032C13.608 163.632 13.344 163.32 13.008 163.096C12.672 162.856 12.28 162.688 11.832 162.592C11.384 162.496 10.912 162.448 10.416 162.448H6.912V168.352ZM6.912 176.56H10.536C11.464 176.56 12.208 176.448 12.768 176.224C13.344 176 13.784 175.72 14.088 175.384C14.392 175.048 14.592 174.696 14.688 174.328C14.8 173.944 14.856 173.6 14.856 173.296C14.856 172.672 14.736 172.136 14.496 171.688C14.256 171.24 13.944 170.88 13.56 170.608C13.176 170.32 12.736 170.112 12.24 169.984C11.76 169.856 11.272 169.792 10.776 169.792H6.912V176.56ZM20.4452 161.008H30.8372V162.448H22.0292V168.496H30.2852V169.936H22.0292V176.56H31.2212V178H20.4452V161.008ZM35.1278 174.856C35.5438 175.576 36.0798 176.112 36.7358 176.464C37.4078 176.816 38.1678 176.992 39.0158 176.992C39.5438 176.992 40.0398 176.912 40.5038 176.752C40.9678 176.592 41.3678 176.368 41.7038 176.08C42.0558 175.792 42.3278 175.448 42.5198 175.048C42.7278 174.632 42.8318 174.168 42.8318 173.656C42.8318 173.064 42.7038 172.576 42.4478 172.192C42.2078 171.808 41.8798 171.496 41.4638 171.256C41.0478 171 40.5758 170.784 40.0478 170.608C39.5358 170.432 38.9998 170.256 38.4398 170.08C37.8958 169.904 37.3598 169.704 36.8318 169.48C36.3198 169.256 35.8558 168.968 35.4398 168.616C35.0238 168.248 34.6878 167.792 34.4318 167.248C34.1918 166.704 34.0718 166.032 34.0718 165.232C34.0718 164.48 34.2158 163.816 34.5038 163.24C34.8078 162.648 35.2078 162.16 35.7038 161.776C36.2158 161.376 36.7998 161.08 37.4558 160.888C38.1118 160.68 38.7998 160.576 39.5198 160.576C40.4478 160.576 41.3038 160.744 42.0878 161.08C42.8878 161.4 43.5758 161.944 44.1518 162.712L42.7838 163.696C42.3838 163.136 41.9118 162.72 41.3678 162.448C40.8398 162.16 40.2078 162.016 39.4718 162.016C38.9598 162.016 38.4718 162.088 38.0078 162.232C37.5438 162.36 37.1358 162.56 36.7838 162.832C36.4478 163.088 36.1758 163.416 35.9678 163.816C35.7598 164.216 35.6558 164.688 35.6558 165.232C35.6558 166.08 35.8718 166.736 36.3038 167.2C36.7358 167.648 37.2718 168.008 37.9118 168.28C38.5678 168.536 39.2718 168.768 40.0238 168.976C40.7918 169.168 41.4958 169.432 42.1358 169.768C42.7918 170.104 43.3358 170.576 43.7678 171.184C44.1998 171.776 44.4158 172.6 44.4158 173.656C44.4158 174.424 44.2718 175.104 43.9838 175.696C43.6958 176.288 43.3038 176.792 42.8078 177.208C42.3278 177.608 41.7678 177.912 41.1278 178.12C40.4878 178.328 39.8238 178.432 39.1358 178.432C38.0158 178.432 36.9838 178.24 36.0398 177.856C35.0958 177.456 34.2878 176.792 33.6158 175.864L35.1278 174.856ZM51.7757 162.448H45.9677V161.008H59.1677V162.448H53.3597V178H51.7757V162.448ZM85.2073 178H75.8473C74.6633 178 73.5273 177.792 72.4393 177.376C71.3673 176.96 70.4233 176.376 69.6073 175.624C68.7913 174.856 68.1353 173.936 67.6393 172.864C67.1593 171.792 66.9193 170.6 66.9193 169.288C66.9193 168.056 67.1193 166.912 67.5193 165.856C67.9353 164.784 68.5113 163.864 69.2473 163.096C69.9993 162.312 70.9033 161.696 71.9593 161.248C73.0313 160.8 74.2233 160.576 75.5353 160.576C76.8473 160.576 78.0313 160.8 79.0873 161.248C80.1593 161.696 81.0633 162.312 81.7993 163.096C82.5513 163.864 83.1273 164.784 83.5273 165.856C83.9433 166.912 84.1513 168.056 84.1513 169.288C84.1513 170.04 84.0553 170.792 83.8633 171.544C83.6713 172.28 83.3913 172.976 83.0233 173.632C82.6553 174.288 82.2073 174.872 81.6793 175.384C81.1513 175.88 80.5593 176.256 79.9033 176.512V176.56H85.2073V178ZM68.5033 169.288C68.5033 170.28 68.6793 171.224 69.0313 172.12C69.3993 173 69.9033 173.768 70.5433 174.424C71.1993 175.08 71.9673 175.6 72.8473 175.984C73.7433 176.368 74.7273 176.56 75.7993 176.56C76.8873 176.56 77.8473 176.36 78.6793 175.96C79.5273 175.544 80.2393 175 80.8153 174.328C81.3913 173.656 81.8233 172.888 82.1113 172.024C82.4153 171.144 82.5673 170.232 82.5673 169.288C82.5673 168.264 82.4073 167.312 82.0873 166.432C81.7673 165.536 81.3033 164.76 80.6953 164.104C80.1033 163.448 79.3673 162.936 78.4873 162.568C77.6233 162.2 76.6393 162.016 75.5353 162.016C74.4313 162.016 73.4393 162.2 72.5593 162.568C71.6953 162.936 70.9593 163.448 70.3513 164.104C69.7593 164.76 69.3033 165.536 68.9833 166.432C68.6633 167.312 68.5033 168.264 68.5033 169.288ZM100.111 171.496C100.111 172.408 100.007 173.28 99.7989 174.112C99.5909 174.944 99.2389 175.68 98.7429 176.32C98.2629 176.96 97.6229 177.472 96.8229 177.856C96.0389 178.24 95.0709 178.432 93.9189 178.432C92.7669 178.432 91.7909 178.24 90.9909 177.856C90.2069 177.472 89.5669 176.96 89.0709 176.32C88.5909 175.68 88.2469 174.944 88.0389 174.112C87.8309 173.28 87.7269 172.408 87.7269 171.496V161.008H89.3109V171.088C89.3109 171.696 89.3669 172.344 89.4789 173.032C89.5909 173.72 89.8069 174.36 90.1269 174.952C90.4629 175.544 90.9269 176.032 91.5189 176.416C92.1269 176.8 92.9269 176.992 93.9189 176.992C94.9109 176.992 95.7029 176.8 96.2949 176.416C96.9029 176.032 97.3669 175.544 97.6869 174.952C98.0229 174.36 98.2469 173.72 98.3589 173.032C98.4709 172.344 98.5269 171.696 98.5269 171.088V161.008H100.111V171.496ZM109.653 161.008H111.285L118.437 178H116.661L114.813 173.488H105.813L103.893 178H102.237L109.653 161.008ZM110.397 162.736L106.437 172.048H114.237L110.397 162.736ZM120.875 161.008H122.459V176.56H130.379V178H120.875V161.008ZM132.875 161.008H134.459V178H132.875V161.008ZM142.877 162.448H137.069V161.008H150.269V162.448H144.461V178H142.877V162.448ZM156.659 170.68L150.418 161.008H152.315L157.451 169.072L162.707 161.008H164.483L158.243 170.68V178H156.659V170.68ZM186.898 175.336C186.082 176.44 185.138 177.232 184.066 177.712C182.994 178.192 181.834 178.432 180.586 178.432C179.29 178.432 178.098 178.216 177.01 177.784C175.938 177.336 175.018 176.72 174.25 175.936C173.482 175.136 172.882 174.192 172.45 173.104C172.018 172 171.802 170.8 171.802 169.504C171.802 168.208 172.018 167.016 172.45 165.928C172.882 164.84 173.482 163.904 174.25 163.12C175.018 162.32 175.938 161.696 177.01 161.248C178.098 160.8 179.29 160.576 180.586 160.576C181.738 160.576 182.81 160.784 183.802 161.2C184.81 161.6 185.69 162.28 186.442 163.24L185.146 164.32C184.618 163.52 183.938 162.936 183.106 162.568C182.29 162.2 181.45 162.016 180.586 162.016C179.482 162.016 178.482 162.208 177.586 162.592C176.706 162.976 175.954 163.504 175.33 164.176C174.706 164.848 174.226 165.64 173.89 166.552C173.554 167.464 173.386 168.448 173.386 169.504C173.386 170.56 173.554 171.544 173.89 172.456C174.226 173.368 174.706 174.16 175.33 174.832C175.954 175.504 176.706 176.032 177.586 176.416C178.482 176.8 179.482 176.992 180.586 176.992C181.018 176.992 181.466 176.944 181.93 176.848C182.394 176.736 182.842 176.576 183.274 176.368C183.722 176.144 184.146 175.872 184.546 175.552C184.946 175.216 185.298 174.816 185.602 174.352L186.898 175.336ZM188.701 169.504C188.701 168.208 188.917 167.016 189.349 165.928C189.781 164.84 190.381 163.904 191.149 163.12C191.917 162.32 192.837 161.696 193.909 161.248C194.997 160.8 196.189 160.576 197.485 160.576C198.781 160.576 199.965 160.8 201.037 161.248C202.125 161.696 203.053 162.32 203.821 163.12C204.589 163.904 205.189 164.84 205.621 165.928C206.053 167.016 206.269 168.208 206.269 169.504C206.269 170.8 206.053 172 205.621 173.104C205.189 174.192 204.589 175.136 203.821 175.936C203.053 176.72 202.125 177.336 201.037 177.784C199.965 178.216 198.781 178.432 197.485 178.432C196.189 178.432 194.997 178.216 193.909 177.784C192.837 177.336 191.917 176.72 191.149 175.936C190.381 175.136 189.781 174.192 189.349 173.104C188.917 172 188.701 170.8 188.701 169.504ZM190.285 169.504C190.285 170.56 190.453 171.544 190.789 172.456C191.125 173.368 191.605 174.16 192.229 174.832C192.853 175.504 193.605 176.032 194.485 176.416C195.381 176.8 196.381 176.992 197.485 176.992C198.589 176.992 199.581 176.8 200.461 176.416C201.357 176.032 202.117 175.504 202.741 174.832C203.365 174.16 203.845 173.368 204.181 172.456C204.517 171.544 204.685 170.56 204.685 169.504C204.685 168.448 204.517 167.464 204.181 166.552C203.845 165.64 203.365 164.848 202.741 164.176C202.117 163.504 201.357 162.976 200.461 162.592C199.581 162.208 198.589 162.016 197.485 162.016C196.381 162.016 195.381 162.208 194.485 162.592C193.605 162.976 192.853 163.504 192.229 164.176C191.605 164.848 191.125 165.64 190.789 166.552C190.453 167.464 190.285 168.448 190.285 169.504ZM209.82 161.008H219.996V162.448H211.404V168.496H219.396V169.936H211.404V178H209.82V161.008ZM223.156 161.008H233.332V162.448H224.74V168.496H232.732V169.936H224.74V178H223.156V161.008ZM236.492 161.008H246.884V162.448H238.076V168.496H246.332V169.936H238.076V176.56H247.268V178H236.492V161.008ZM250.719 161.008H261.111V162.448H252.303V168.496H260.559V169.936H252.303V176.56H261.495V178H250.719V161.008ZM271.18 161.008H276.076C276.716 161.008 277.364 161.064 278.02 161.176C278.676 161.272 279.26 161.488 279.772 161.824C280.3 162.144 280.724 162.6 281.044 163.192C281.38 163.768 281.548 164.536 281.548 165.496C281.548 166.36 281.292 167.112 280.78 167.752C280.268 168.392 279.508 168.816 278.5 169.024V169.072C279.06 169.12 279.572 169.256 280.036 169.48C280.5 169.688 280.9 169.976 281.236 170.344C281.572 170.696 281.828 171.12 282.004 171.616C282.196 172.112 282.292 172.656 282.292 173.248C282.292 174.224 282.1 175.024 281.716 175.648C281.348 176.256 280.876 176.736 280.3 177.088C279.74 177.44 279.124 177.68 278.452 177.808C277.796 177.936 277.18 178 276.604 178H271.18V161.008ZM272.764 168.352H276.052C276.868 168.352 277.532 168.256 278.044 168.064C278.556 167.856 278.956 167.608 279.244 167.32C279.532 167.032 279.724 166.728 279.82 166.408C279.916 166.072 279.964 165.768 279.964 165.496C279.964 164.904 279.86 164.416 279.652 164.032C279.46 163.632 279.196 163.32 278.86 163.096C278.524 162.856 278.132 162.688 277.684 162.592C277.236 162.496 276.764 162.448 276.268 162.448H272.764V168.352ZM272.764 176.56H276.388C277.316 176.56 278.06 176.448 278.62 176.224C279.196 176 279.636 175.72 279.94 175.384C280.244 175.048 280.444 174.696 280.54 174.328C280.652 173.944 280.708 173.6 280.708 173.296C280.708 172.672 280.588 172.136 280.348 171.688C280.108 171.24 279.796 170.88 279.412 170.608C279.028 170.32 278.588 170.112 278.092 169.984C277.612 169.856 277.124 169.792 276.628 169.792H272.764V176.56ZM286.297 161.008H296.689V162.448H287.881V168.496H296.137V169.936H287.881V176.56H297.073V178H286.297V161.008ZM305.731 161.008H307.363L314.515 178H312.739L310.891 173.488H301.891L299.971 178H298.315L305.731 161.008ZM306.475 162.736L302.515 172.048H310.315L306.475 162.736ZM316.953 161.008H318.993L329.337 175.888H329.385V161.008H330.969V178H328.929L318.585 163.12H318.537V178H316.953V161.008ZM336.089 174.856C336.505 175.576 337.041 176.112 337.697 176.464C338.369 176.816 339.129 176.992 339.977 176.992C340.505 176.992 341.001 176.912 341.465 176.752C341.929 176.592 342.329 176.368 342.665 176.08C343.017 175.792 343.289 175.448 343.481 175.048C343.689 174.632 343.793 174.168 343.793 173.656C343.793 173.064 343.665 172.576 343.409 172.192C343.169 171.808 342.841 171.496 342.425 171.256C342.009 171 341.537 170.784 341.009 170.608C340.497 170.432 339.961 170.256 339.401 170.08C338.857 169.904 338.321 169.704 337.793 169.48C337.281 169.256 336.817 168.968 336.401 168.616C335.985 168.248 335.649 167.792 335.393 167.248C335.153 166.704 335.033 166.032 335.033 165.232C335.033 164.48 335.177 163.816 335.465 163.24C335.769 162.648 336.169 162.16 336.665 161.776C337.177 161.376 337.761 161.08 338.417 160.888C339.073 160.68 339.761 160.576 340.481 160.576C341.409 160.576 342.265 160.744 343.049 161.08C343.849 161.4 344.537 161.944 345.113 162.712L343.745 163.696C343.345 163.136 342.873 162.72 342.329 162.448C341.801 162.16 341.169 162.016 340.433 162.016C339.921 162.016 339.433 162.088 338.969 162.232C338.505 162.36 338.097 162.56 337.745 162.832C337.409 163.088 337.137 163.416 336.929 163.816C336.721 164.216 336.617 164.688 336.617 165.232C336.617 166.08 336.833 166.736 337.265 167.2C337.697 167.648 338.233 168.008 338.873 168.28C339.529 168.536 340.233 168.768 340.985 168.976C341.753 169.168 342.457 169.432 343.097 169.768C343.753 170.104 344.297 170.576 344.729 171.184C345.161 171.776 345.377 172.6 345.377 173.656C345.377 174.424 345.233 175.104 344.945 175.696C344.657 176.288 344.265 176.792 343.769 177.208C343.289 177.608 342.729 177.912 342.089 178.12C341.449 178.328 340.785 178.432 340.097 178.432C338.977 178.432 337.945 178.24 337.001 177.856C336.057 177.456 335.249 176.792 334.577 175.864L336.089 174.856Z" fill="black"/>
<path d="M104.66 20.764C106.944 24.244 108.467 29.1856 109.228 35.5888C110.059 41.9224 110.094 49.1608 109.332 57.304C108.571 65.0992 107.186 72.6508 105.179 79.9588C103.241 87.2668 100.887 93.5308 98.1187 98.7508C92.858 108.425 86.9397 113.262 80.3639 113.262C76.9029 113.262 73.9611 111.592 71.5384 108.251C69.6695 105.676 68.0428 102.057 66.6584 97.3936C65.0664 91.8256 63.4743 82.4992 61.8823 69.4144C61.0516 63.2896 60.4287 59.0788 60.0134 56.782C59.7365 54.9724 59.425 53.5456 59.0789 52.5016C58.7328 52.9192 58.4213 53.476 58.1444 54.172C56.9677 56.3992 54.9257 62.6284 52.0185 72.8596C47.3808 89.2852 43.4353 101.013 40.182 108.042C37.4824 113.889 34.679 118.308 31.7718 121.301C28.5185 124.712 25.0575 126.417 21.3889 126.417C20.8351 126.417 20.2813 126.382 19.7276 126.312C16.059 125.756 13.0133 123.354 10.5906 119.109C7.82183 114.446 5.84908 107.451 4.67235 98.1244C3.63405 89.9812 3.21874 80.7244 3.4264 70.354C3.70327 60.6796 4.46469 51.4576 5.71064 42.688C7.02581 33.9184 8.58325 27.2368 10.383 22.6432C10.6598 21.9472 11.1444 21.46 11.8366 21.1816C12.5288 20.8336 13.221 20.7988 13.9132 21.0772C14.6746 21.3556 15.1937 21.8428 15.4706 22.5388C15.7475 23.2348 15.7475 23.9656 15.4706 24.7312C13.7401 29.0464 12.2865 35.4148 11.1098 43.8364C9.93303 52.258 9.20623 61.1668 8.92935 70.5628C8.72169 81.2116 9.17162 90.5032 10.2791 98.4376C11.3866 106.442 13.0825 112.427 15.3668 116.394C16.8896 119.039 18.5855 120.501 20.4544 120.779C25.369 121.475 30.2836 116.464 35.1982 105.746C38.313 98.9944 42.1893 87.5104 46.827 71.2936C49.8035 60.784 51.9147 54.2416 53.1606 51.6664C55.3064 47.3512 57.5907 45.4024 60.0134 45.82C61.3977 46.0984 62.4706 46.9336 63.2321 48.3256C63.9935 49.7176 64.6511 51.7012 65.2048 54.2764C65.6894 56.8516 66.3815 61.6888 67.2814 68.788C68.8734 81.5248 70.4309 90.538 71.9537 95.8276C74.238 103.832 77.0414 107.834 80.3639 107.834C84.7939 107.834 89.0855 103.936 93.2387 96.1408C96.8381 89.32 99.6415 80.968 101.649 71.0848C103.725 61.2016 104.625 51.8404 104.348 43.0012C104.141 34.162 102.722 27.7936 100.091 23.896C98.4994 21.46 96.5612 20.3464 94.277 20.5552C93.7233 20.6248 93.2387 20.5552 92.8234 20.3464C92.4081 20.1376 92.0274 19.8244 91.6813 19.4068C91.4044 18.9892 91.266 18.5368 91.266 18.0496C91.1967 17.284 91.4044 16.6228 91.8889 16.066C92.3735 15.4396 92.9964 15.0916 93.7579 15.022C98.2571 14.674 101.891 16.588 104.66 20.764ZM150.345 77.5576C150.968 77.2096 151.591 77.14 152.214 77.3488C152.837 77.488 153.321 77.8708 153.667 78.4972C154.013 79.054 154.083 79.6456 153.875 80.272C153.252 82.7776 152.145 84.97 150.552 86.8492C149.03 88.7284 147.334 90.1204 145.465 91.0252C143.665 91.93 141.831 92.3824 139.962 92.3824C139.477 92.3824 138.993 92.3476 138.508 92.278C135.047 91.7212 132.694 89.7028 131.448 86.2228C131.102 86.5708 130.756 86.9188 130.41 87.2668C126.464 91.3036 122.761 93.322 119.3 93.322C119.231 93.322 119.196 93.322 119.196 93.322C117.189 93.322 115.458 92.5216 114.005 90.9208C112.551 89.2504 111.963 87.3364 112.239 85.1788C112.586 82.3252 113.832 79.8196 115.977 77.662C118.123 75.5044 120.442 73.9384 122.934 72.964C125.426 71.9896 127.848 71.4676 130.202 71.398C132.071 71.398 133.663 71.8852 134.978 72.8596C136.362 73.7644 137.228 75.0172 137.574 76.618C137.712 77.314 137.574 77.9404 137.159 78.4972C136.812 79.054 136.328 79.402 135.705 79.5412C135.566 79.5412 135.428 79.5412 135.29 79.5412C135.359 79.8196 135.393 80.1328 135.393 80.4808C135.186 84.7264 136.466 87.0928 139.235 87.58C141.035 87.8584 142.938 87.2668 144.946 85.8052C147.092 84.1348 148.545 81.8728 149.307 79.0192C149.445 78.3928 149.791 77.9056 150.345 77.5576ZM131.033 79.0192C131.517 78.3232 132.175 77.9752 133.005 77.9752C132.936 77.836 132.902 77.7316 132.902 77.662C132.694 76.6876 131.898 76.2004 130.513 76.2004C130.444 76.2004 130.375 76.2004 130.306 76.2004C127.468 76.27 124.63 77.2096 121.792 79.0192C118.954 80.7592 117.327 83.0212 116.912 85.8052C116.843 86.5012 117.05 87.1276 117.535 87.6844C118.089 88.3108 118.642 88.5892 119.196 88.5196C121.134 88.5196 123.245 87.4408 125.53 85.2832C127.883 83.056 129.717 80.968 131.033 79.0192ZM197.887 77.4532C198.51 77.662 198.926 78.0796 199.133 78.706C199.41 79.3324 199.445 79.9588 199.237 80.5852C199.03 81.2116 198.614 81.6292 197.991 81.838C197.576 82.0468 196.953 82.3252 196.122 82.6732C188.508 86.014 182.832 89.0764 179.094 91.8604C179.094 96.3148 178.852 100.943 178.367 105.746C178.021 109.017 177.537 112.288 176.914 115.559C176.36 118.83 175.287 122.763 173.695 127.356C172.172 132.02 170.373 135.674 168.296 138.318C165.458 141.938 162.239 143.747 158.64 143.747C157.602 143.747 156.529 143.573 155.421 143.225C152.168 142.251 149.953 139.919 148.776 136.23C147.599 132.542 147.703 128.157 149.088 123.076C150.61 117.786 153.31 112.601 157.186 107.52C163.139 99.7948 168.815 93.7744 174.214 89.4592C174.007 84.448 173.453 81.1072 172.553 79.4368C172.415 79.2976 172.311 79.1584 172.242 79.0192C171.826 79.228 171.203 79.6804 170.373 80.3764C169.611 81.142 168.4 82.534 166.739 84.5524C165.147 86.4316 163.901 87.8584 163.001 88.8328C162.101 89.8072 160.89 90.7816 159.367 91.756C157.913 92.7304 156.529 93.2176 155.214 93.2176C152.791 93.2872 150.991 92.4172 149.814 90.6076C148.776 88.9372 148.534 86.6056 149.088 83.6128C149.503 81.2464 150.368 78.7408 151.683 76.096C151.96 75.5392 152.41 75.1564 153.033 74.9476C153.656 74.7388 154.244 74.7736 154.798 75.052C155.421 75.3304 155.837 75.7828 156.044 76.4092C156.252 77.0356 156.217 77.662 155.94 78.2884C154.833 80.5156 154.106 82.6036 153.76 84.5524C153.414 86.4316 153.448 87.6148 153.864 88.102C154.071 88.3804 154.487 88.5196 155.11 88.5196C156.494 88.45 159.159 86.0836 163.105 81.4204C164.558 79.6804 165.666 78.3928 166.427 77.5576C167.258 76.7224 168.261 75.9568 169.438 75.2608C170.615 74.4952 171.722 74.1472 172.761 74.2168C174.353 74.356 175.668 75.3304 176.706 77.14C177.745 78.9496 178.437 81.9772 178.783 86.2228C182.175 83.926 187.331 81.2812 194.253 78.2884C195.153 77.9404 195.742 77.662 196.018 77.4532C196.641 77.2444 197.264 77.2444 197.887 77.4532ZM173.591 105.328C174.007 101.987 174.249 98.7856 174.318 95.7232C170.096 99.412 165.666 104.319 161.028 110.444C157.982 114.341 155.663 118.552 154.071 123.076C152.479 127.6 152.202 131.498 153.241 134.769C153.933 136.857 155.144 138.144 156.875 138.632C159.644 139.467 162.205 138.388 164.558 135.395C166.704 132.681 168.573 128.644 170.165 123.285C171.757 117.995 172.899 112.01 173.591 105.328ZM229.916 79.228C229.916 79.5064 229.882 79.8196 229.812 80.1676C229.743 80.446 229.605 80.7244 229.397 81.0028C229.259 81.2116 229.051 81.4204 228.774 81.6292C228.497 81.7684 228.22 81.8728 227.943 81.9424C223.721 82.5688 218.46 84.1348 212.161 86.6404C212.577 87.3364 212.888 88.102 213.096 88.9372C213.65 91.6516 212.023 94.2268 208.216 96.6628C205.655 98.2636 202.747 99.4816 199.494 100.317C197.902 100.665 196.483 100.839 195.237 100.839C193.576 100.839 192.295 100.491 191.395 99.7948C190.011 98.7508 189.561 97.324 190.046 95.5144C190.599 93.6352 192.468 91.6168 195.652 89.4592C197.383 88.3456 199.529 87.1624 202.09 85.9096C200.013 85.144 198.49 84.4132 197.521 83.7172C195.445 82.186 194.683 80.2024 195.237 77.7664C195.722 75.4 197.971 72.9292 201.986 70.354C202.54 70.006 203.128 69.9016 203.751 70.0408C204.443 70.18 204.962 70.528 205.309 71.0848C205.655 71.6416 205.758 72.2332 205.62 72.8596C205.482 73.486 205.136 74.008 204.582 74.4256C201.675 76.2352 200.117 77.662 199.909 78.706C199.84 78.9844 199.84 79.228 199.909 79.4368C199.979 79.576 200.359 79.8544 201.052 80.272C201.744 80.62 202.817 81.0724 204.27 81.6292C206.001 82.186 207.281 82.6732 208.112 83.0908C215.518 80.0284 221.852 78.0796 227.113 77.2444C227.805 77.1052 228.393 77.2444 228.878 77.662C229.432 78.01 229.778 78.532 229.916 79.228ZM206.762 91.756C207.939 90.8512 208.493 90.2248 208.423 89.8768C208.354 89.3896 208.077 88.9372 207.593 88.5196C207.524 88.5892 207.454 88.624 207.385 88.624C203.924 90.2248 201.19 91.6516 199.183 92.9044C197.245 94.1572 195.895 95.2012 195.133 96.0364C196.587 96.0364 198.49 95.6536 200.844 94.888C203.197 94.1224 205.17 93.0784 206.762 91.756Z" fill="black"/>
<path d="M309.884 77.2444C310.646 77.1052 311.338 77.2444 311.961 77.662C312.584 78.0796 312.964 78.6712 313.103 79.4368C313.241 80.1328 313.103 80.794 312.688 81.4204C307.981 88.45 301.509 93.9136 293.272 97.8112C289.326 107.207 281.47 114.654 269.702 120.153C259.112 125.164 247.587 127.67 235.127 127.67C231.943 127.67 228.828 127.461 225.783 127.043C223.083 126.765 220.66 126.173 218.514 125.268C216.369 124.364 214.569 123.215 213.115 121.823C211.662 120.431 210.589 118.865 209.897 117.125C209.204 115.176 209.031 113.193 209.378 111.174C209.724 109.226 210.589 107.52 211.973 106.059C214.05 103.692 217.891 102.161 223.498 101.465C222.46 87.2668 222.771 72.8248 224.433 58.1392C226.094 43.384 228.932 30.4384 232.947 19.3024C233.224 18.6064 233.708 18.1192 234.4 17.8408C235.093 17.4928 235.785 17.458 236.477 17.7364C237.169 17.9452 237.688 18.3976 238.034 19.0936C238.38 19.7896 238.415 20.4856 238.138 21.1816C233.639 33.7096 230.662 48.43 229.209 65.3428C230.109 62.002 231.112 58.696 232.22 55.4248C233.327 52.1536 234.504 49.0216 235.75 46.0288C236.996 43.036 238.277 40.1824 239.592 37.468C240.976 34.684 242.395 32.074 243.849 29.638C245.372 27.202 246.929 25.0096 248.521 23.0608C255.028 14.6392 261.707 10.0456 268.56 9.27998C274.375 8.65358 278.77 9.90638 281.746 13.0384C285.138 16.588 286.28 22.156 285.173 29.7424C284.481 34.1272 282.75 38.7556 279.981 43.6276C277.213 48.4996 273.648 53.1976 269.287 57.7216C266.864 60.2968 264.372 62.5588 261.811 64.5076C274.963 64.5772 284.515 67.6744 290.468 73.7992C294.76 78.3232 296.421 83.8912 295.452 90.5032C300.643 87.3016 304.866 83.2648 308.119 78.3928C308.604 77.7664 309.192 77.3836 309.884 77.2444ZM267.314 115.142C275.274 111.453 281.262 106.755 285.277 101.048C280.847 102.44 275.759 103.518 270.014 104.284C264.269 105.119 259.596 105.606 255.997 105.746C252.397 105.885 247.517 106.024 241.357 106.163C235.958 106.233 232.047 106.337 229.624 106.476C229.763 109.191 230.005 111.766 230.351 114.202C230.489 114.968 230.316 115.629 229.832 116.186C229.417 116.812 228.828 117.195 228.067 117.334C227.582 117.404 227.098 117.334 226.613 117.125C226.198 116.986 225.817 116.708 225.471 116.29C225.194 115.942 225.021 115.524 224.952 115.037C224.537 112.392 224.19 109.713 223.914 106.998C219.83 107.555 217.165 108.495 215.919 109.817C214.604 111.279 214.327 113.054 215.088 115.142C216.403 118.691 220.176 120.849 226.405 121.614C233.327 122.38 240.353 122.206 247.483 121.092C254.612 119.979 261.223 117.995 267.314 115.142ZM289.845 90.2944C290.814 85.2136 289.672 81.0028 286.419 77.662C283.304 74.4604 278.562 72.268 272.194 71.0848C265.895 69.832 258.627 69.7276 250.39 70.7716C249.49 70.9804 248.625 71.0848 247.794 71.0848C247.31 71.0848 246.86 70.9804 246.445 70.7716C246.098 70.5628 245.787 70.2844 245.51 69.9364C245.233 69.5188 245.095 69.0664 245.095 68.5792C245.026 67.8136 245.199 67.1524 245.614 66.5956C246.098 66.0388 246.687 65.7256 247.379 65.656C248.071 65.5168 248.729 65.4124 249.352 65.3428C250.598 64.9948 252.017 64.3684 253.609 63.4636C255.27 62.4892 257.139 61.1668 259.216 59.4964C261.292 57.826 263.334 55.9468 265.341 53.8588C267.349 51.8404 269.149 49.7524 270.741 47.5948C272.402 45.4372 273.821 43.3144 274.998 41.2264C276.244 39.0688 277.247 36.946 278.009 34.858C278.839 32.77 279.393 30.7864 279.67 28.9072C280.57 23.1304 279.947 19.1284 277.801 16.9012C276.417 15.4396 274.271 14.7088 271.364 14.7088C270.671 14.7088 269.945 14.7436 269.183 14.8132C263.853 15.37 258.385 19.2328 252.778 26.4016C250.355 29.6032 247.967 33.3616 245.614 37.6768C243.33 41.992 241.218 46.69 239.28 51.7708C237.411 56.8516 235.75 62.1412 234.297 67.6396C231.251 79.402 229.659 90.5032 229.52 100.943C231.874 100.804 235.819 100.7 241.357 100.63C246.618 100.56 250.736 100.456 253.713 100.317C256.758 100.178 260.635 99.8644 265.341 99.3772C270.118 98.89 274.409 98.194 278.216 97.2892C282.093 96.3148 285.692 95.1316 289.015 93.7396C289.361 92.626 289.638 91.4776 289.845 90.2944ZM336.759 76.8268C337.451 76.7572 338.039 76.966 338.524 77.4532C339.008 77.8708 339.251 78.4276 339.251 79.1236C339.32 79.75 339.112 80.3068 338.628 80.794C331.498 88.7284 324.507 92.8 317.654 93.0088C317.446 93.0088 317.239 93.0088 317.031 93.0088C313.086 93.0088 310.005 91.756 307.79 89.2504C305.645 86.8144 304.883 83.752 305.506 80.0632C305.921 77.488 306.96 75.0172 308.621 72.6508C310.628 69.7276 312.843 68.266 315.266 68.266C317.481 68.266 319.073 69.2404 320.042 71.1892C320.665 72.5116 320.838 73.8688 320.561 75.2608C320.354 76.6528 319.869 77.8708 319.108 78.9148C317.17 81.6292 314.193 83.1952 310.178 83.6128C310.386 84.5872 310.767 85.4224 311.321 86.1184C312.705 87.6496 314.747 88.3804 317.446 88.3108C322.984 88.102 328.868 84.5176 335.097 77.5576C335.582 77.0704 336.136 76.8268 336.759 76.8268ZM315.266 73.0684C314.643 73.0684 313.882 73.6252 312.982 74.7388C312.082 75.8524 311.355 77.1748 310.801 78.706C312.878 78.2188 314.366 77.3488 315.266 76.096C315.612 75.6784 315.82 75.1912 315.889 74.6344C315.958 74.008 315.924 73.5556 315.785 73.2772C315.716 73.138 315.543 73.0684 315.266 73.0684Z" fill="black"/>
<path d="M436.256 76.0902C436.951 76.0531 437.531 76.2891 437.992 76.7984C438.457 77.238 438.708 77.8073 438.742 78.5056C438.783 79.1346 438.586 79.6827 438.148 80.1502C437.932 80.3488 437.603 80.6821 437.167 81.1492C435.996 82.4882 435.013 83.522 434.217 84.2514C433.49 84.9836 432.512 85.8786 431.287 86.9359C430.061 87.9239 428.815 88.6669 427.546 89.1648C426.346 89.5967 425.126 89.7834 423.88 89.7251C423.257 89.6961 422.64 89.5975 422.023 89.4293C421.134 89.1788 420.353 88.8287 419.681 88.3792C419.078 87.9329 418.579 87.4915 418.184 87.0551C417.861 86.5522 417.541 85.945 417.229 85.2336C416.984 84.5254 416.8 83.9941 416.678 83.6401C416.56 83.2167 416.448 82.6538 416.341 81.9523C416.055 80.6151 415.753 79.6604 415.432 79.0879C415.182 78.5187 414.683 78.0773 413.936 77.7638C412.915 77.3676 411.585 77.6539 409.947 78.6222C408.378 79.594 407.083 80.5788 406.068 81.5764C405.122 82.5772 403.916 83.9144 402.451 85.5877C401.286 86.857 400.446 87.7583 399.936 88.2919C399.425 88.8255 398.814 89.3194 398.102 89.7738C397.458 90.1619 396.827 90.3414 396.204 90.3124C396.135 90.3089 396.1 90.3074 396.1 90.3074C395.203 90.2654 394.491 89.9186 393.966 89.2669C391.93 86.8724 392.045 82.1051 394.318 74.965C394.554 74.349 394.955 73.9149 395.52 73.6626C396.088 73.341 396.68 73.2989 397.294 73.5365C397.978 73.7078 398.445 74.0782 398.696 74.6474C399.016 75.2196 399.056 75.8486 398.817 76.5342C397.767 79.7599 397.233 82.3127 397.216 84.1934C397.58 83.7923 398.128 83.1908 398.857 82.3887C401.851 79.1146 404.21 76.821 405.932 75.5082C409.517 72.8889 412.773 72.1703 415.698 73.352C416.924 73.8273 417.93 74.5712 418.715 75.5833C419.499 76.5954 420.012 77.4558 420.258 78.164C420.503 78.8722 420.736 79.8237 420.958 81.0185C421.241 82.3556 421.512 83.2738 421.766 83.7735C422.089 84.2763 422.594 84.6136 423.277 84.785C424.301 85.1115 425.492 84.8534 426.848 84.0113C428.273 83.172 429.383 82.353 430.182 81.5544C431.056 80.6893 432.218 79.4896 433.675 77.9552C434.116 77.4184 434.445 77.0507 434.661 76.8517C435.099 76.3845 435.63 76.1305 436.256 76.0902ZM469.075 79.7149C469.06 79.993 469.011 80.3045 468.928 80.6487C468.844 80.9236 468.694 81.1954 468.475 81.4636C468.325 81.6657 468.109 81.8647 467.823 82.0601C467.54 82.1863 467.258 82.2776 466.978 82.3342C462.732 82.7628 457.405 84.0814 450.997 86.2901C451.378 87.0046 451.654 87.7842 451.825 88.628C452.252 91.3654 450.507 93.8617 446.593 96.1173C443.96 97.5969 441 98.6777 437.71 99.3601C436.103 99.6333 434.678 99.7408 433.435 99.6826C431.774 99.6048 430.511 99.1974 429.646 98.4602C428.31 97.3527 427.927 95.9065 428.495 94.1215C429.135 92.2702 431.093 90.3411 434.376 88.3346C436.155 87.303 438.353 86.2213 440.969 85.0895C438.93 84.2279 437.444 83.4266 436.507 82.6862C434.502 81.0596 433.833 79.0427 434.5 76.6351C435.094 74.2939 437.456 71.9307 441.583 69.5461C442.154 69.2242 442.745 69.1473 443.363 69.3155C444.046 69.4869 444.551 69.8587 444.868 70.4311C445.188 71.0036 445.266 71.5993 445.099 72.2187C444.932 72.8378 444.562 73.343 443.988 73.7345C441 75.4061 439.38 76.7586 439.123 77.7919C439.042 78.0668 439.031 78.3101 439.091 78.5218C439.152 78.6642 439.521 78.96 440.193 79.4095C440.868 79.7894 441.918 80.2914 443.345 80.9158C445.047 81.5526 446.304 82.0993 447.115 82.5552C454.654 79.8419 461.071 78.1912 466.366 77.6025C467.064 77.4958 467.644 77.6623 468.109 78.1022C468.648 78.4757 468.968 79.0134 469.075 79.7149ZM445.367 91.1479C446.584 90.299 447.167 89.6993 447.112 89.3484C447.066 88.8583 446.809 88.3937 446.345 87.9538C446.273 88.0202 446.203 88.0515 446.134 88.0483C442.601 89.4859 439.806 90.7833 437.741 91.941C435.748 93.1019 434.352 94.0818 433.554 94.8804C435.004 94.9483 436.922 94.6548 439.31 94C441.696 93.3452 443.714 92.3946 445.367 91.1479Z" fill="black"/>
<path d="M393.155 59.7806C393.138 59.7649 393.121 59.7504 393.106 59.7351C393.103 59.7333 393.103 59.7319 393.101 59.7304C384.915 51.9465 369.932 54.2935 359.255 64.541C357.663 66.0701 356.224 67.7188 354.966 69.4521C348.592 68.5453 342.983 70.0686 339.129 73.7667C339.115 73.7812 339.101 73.7963 339.083 73.8111C339.08 73.814 339.078 73.8169 339.075 73.8201C331.354 81.3143 333.802 96.4079 344.387 106.565C355.102 116.849 370.849 119.011 378.559 111.611C378.567 111.602 378.576 111.592 378.585 111.583C378.59 111.578 378.596 111.573 378.602 111.568C382.423 107.872 383.995 102.505 383.052 96.4111C384.861 95.2024 386.577 93.8225 388.172 92.2931C398.903 81.9923 401.303 67.6022 393.155 59.7806ZM361.885 67.064C370.151 59.129 381.033 56.6179 387.961 60.425L387.877 60.4525C383.75 61.8007 380.099 64.1286 377.316 67.1843C374.668 70.0898 372.805 73.6574 371.899 77.5332C367.98 74.1286 363.503 71.6422 358.915 70.3079C359.82 69.1766 360.813 68.0911 361.885 67.064ZM347.015 104.042C339.222 96.5619 336.133 85.6791 339.83 78.8394C342.689 86.8834 349.856 92.9059 358.543 94.5583C366.024 95.9813 372.15 101.185 374.53 108.139L375.098 109.8C368.533 114.857 355.765 112.441 347.015 104.042ZM377.898 106.574C374.991 98.6255 367.896 92.7002 359.264 91.0583C351.875 89.6523 345.775 84.5269 343.349 77.682L342.596 75.5612C349.42 70.1748 361.787 72.8083 370.671 81.3354C374.974 85.463 378.319 90.8167 379.314 96.55C379.981 100.386 379.479 103.841 377.898 106.574ZM382.161 92.6193C380.817 88.3642 378.351 84.207 374.985 80.5376C375.15 79.9704 375.294 79.3968 375.412 78.8214C376.895 71.6477 381.873 66.1832 389.074 63.8299L391.286 63.1075C396.882 69.5901 394.496 81.1745 385.541 89.7704C384.471 90.7976 383.341 91.7505 382.161 92.6193Z" fill="black"/>
<path d="M17.598 231H10.308C9.384 231 8.526 230.838 7.734 230.514C6.954 230.19 6.276 229.74 5.7 229.164C5.124 228.576 4.674 227.886 4.35 227.094C4.026 226.29 3.864 225.414 3.864 224.466C3.864 223.518 4.026 222.648 4.35 221.856C4.674 221.052 5.124 220.362 5.7 219.786C6.276 219.198 6.954 218.742 7.734 218.418C8.526 218.094 9.384 217.932 10.308 217.932C11.22 217.932 12.066 218.094 12.846 218.418C13.638 218.742 14.322 219.198 14.898 219.786C15.474 220.362 15.924 221.052 16.248 221.856C16.572 222.648 16.734 223.518 16.734 224.466C16.734 225.618 16.494 226.656 16.014 227.58C15.546 228.492 14.79 229.224 13.746 229.776V229.812H17.598V231ZM5.268 224.466C5.268 225.174 5.382 225.852 5.61 226.5C5.838 227.136 6.168 227.7 6.6 228.192C7.032 228.684 7.56 229.08 8.184 229.38C8.808 229.668 9.516 229.812 10.308 229.812C11.088 229.812 11.79 229.668 12.414 229.38C13.038 229.08 13.566 228.684 13.998 228.192C14.43 227.7 14.76 227.136 14.988 226.5C15.216 225.852 15.33 225.174 15.33 224.466C15.33 223.758 15.216 223.086 14.988 222.45C14.76 221.802 14.43 221.232 13.998 220.74C13.566 220.248 13.038 219.858 12.414 219.57C11.79 219.27 11.088 219.12 10.308 219.12C9.516 219.12 8.808 219.27 8.184 219.57C7.56 219.858 7.032 220.248 6.6 220.74C6.168 221.232 5.838 221.802 5.61 222.45C5.382 223.086 5.268 223.758 5.268 224.466ZM25.3917 231C25.3677 230.772 25.3497 230.55 25.3377 230.334C25.3377 230.106 25.3377 229.878 25.3377 229.65H25.3017C25.1697 229.878 25.0017 230.088 24.7977 230.28C24.5937 230.472 24.3657 230.64 24.1137 230.784C23.8617 230.916 23.5917 231.018 23.3037 231.09C23.0277 231.174 22.7517 231.216 22.4757 231.216C21.3957 231.216 20.5977 230.934 20.0817 230.37C19.5657 229.794 19.3077 228.978 19.3077 227.922V222.576H20.4957V227.238C20.4957 227.706 20.5317 228.12 20.6037 228.48C20.6757 228.84 20.7957 229.146 20.9637 229.398C21.1437 229.638 21.3777 229.824 21.6657 229.956C21.9657 230.076 22.3377 230.136 22.7817 230.136C22.8417 230.136 23.0097 230.112 23.2857 230.064C23.5617 230.016 23.8497 229.884 24.1497 229.668C24.4617 229.452 24.7377 229.128 24.9777 228.696C25.2177 228.264 25.3377 227.664 25.3377 226.896V222.576H26.5257V229.146C26.5257 229.374 26.5317 229.662 26.5437 230.01C26.5677 230.358 26.5917 230.688 26.6157 231H25.3917ZM34.0977 226.806C33.7977 226.806 33.4197 226.824 32.9637 226.86C32.5197 226.884 32.0877 226.956 31.6677 227.076C31.2597 227.184 30.9057 227.358 30.6057 227.598C30.3177 227.838 30.1737 228.168 30.1737 228.588C30.1737 228.864 30.2277 229.104 30.3357 229.308C30.4557 229.5 30.6117 229.662 30.8037 229.794C30.9957 229.914 31.2057 230.004 31.4337 230.064C31.6737 230.112 31.9137 230.136 32.1537 230.136C32.5857 230.136 32.9577 230.064 33.2697 229.92C33.5937 229.776 33.8637 229.584 34.0797 229.344C34.2957 229.092 34.4517 228.804 34.5477 228.48C34.6557 228.144 34.7097 227.79 34.7097 227.418V226.806H34.0977ZM34.7097 225.834V225.618C34.7097 224.166 33.9897 223.44 32.5497 223.44C31.5657 223.44 30.7077 223.77 29.9757 224.43L29.2557 223.584C30.0477 222.768 31.2357 222.36 32.8197 222.36C33.2277 222.36 33.6177 222.42 33.9897 222.54C34.3737 222.66 34.7037 222.846 34.9797 223.098C35.2557 223.338 35.4777 223.644 35.6457 224.016C35.8137 224.388 35.8977 224.832 35.8977 225.348V229.11C35.8977 229.434 35.9097 229.776 35.9337 230.136C35.9697 230.484 36.0057 230.772 36.0417 231H34.8897C34.8537 230.796 34.8237 230.574 34.7997 230.334C34.7877 230.094 34.7817 229.86 34.7817 229.632H34.7457C34.3977 230.196 33.9837 230.604 33.5037 230.856C33.0357 231.096 32.4597 231.216 31.7757 231.216C31.4037 231.216 31.0437 231.162 30.6957 231.054C30.3477 230.958 30.0357 230.808 29.7597 230.604C29.4957 230.388 29.2797 230.13 29.1117 229.83C28.9557 229.518 28.8777 229.158 28.8777 228.75C28.8777 228.066 29.0517 227.532 29.3997 227.148C29.7597 226.752 30.2037 226.458 30.7317 226.266C31.2717 226.074 31.8417 225.954 32.4417 225.906C33.0537 225.858 33.6117 225.834 34.1157 225.834H34.7097ZM40.1017 231H38.9137V217.392H40.1017V231ZM44.6959 219.336C44.6959 219.588 44.6059 219.798 44.4259 219.966C44.2459 220.122 44.0479 220.2 43.8319 220.2C43.6159 220.2 43.4179 220.122 43.2379 219.966C43.0579 219.798 42.9679 219.588 42.9679 219.336C42.9679 219.084 43.0579 218.88 43.2379 218.724C43.4179 218.556 43.6159 218.472 43.8319 218.472C44.0479 218.472 44.2459 218.556 44.4259 218.724C44.6059 218.88 44.6959 219.084 44.6959 219.336ZM44.4259 231H43.2379V222.576H44.4259V231ZM51.6481 223.656H49.2181V228.624C49.2181 228.936 49.2481 229.194 49.3081 229.398C49.3681 229.59 49.4521 229.74 49.5601 229.848C49.6681 229.956 49.7941 230.034 49.9381 230.082C50.0941 230.118 50.2621 230.136 50.4421 230.136C50.6461 230.136 50.8561 230.106 51.0721 230.046C51.2881 229.986 51.4861 229.908 51.6661 229.812L51.7201 230.91C51.2761 231.114 50.7421 231.216 50.1181 231.216C49.8901 231.216 49.6501 231.186 49.3981 231.126C49.1581 231.066 48.9361 230.952 48.7321 230.784C48.5281 230.616 48.3601 230.388 48.2281 230.1C48.0961 229.812 48.0301 229.434 48.0301 228.966V223.656H46.2481V222.576H48.0301V220.2H49.2181V222.576H51.6481V223.656ZM56.4007 229.542L58.9747 222.576H60.4147L56.2027 233.196C55.9507 233.844 55.6267 234.36 55.2307 234.744C54.8467 235.128 54.2887 235.32 53.5567 235.32C53.3767 235.32 53.1907 235.314 52.9987 235.302C52.8187 235.29 52.6387 235.254 52.4587 235.194L52.5847 234.042C52.8367 234.174 53.1367 234.24 53.4847 234.24C53.9047 234.24 54.2347 234.108 54.4747 233.844C54.7147 233.58 54.9247 233.208 55.1047 232.728L55.7167 231.108L52.2607 222.576H53.7547L56.4007 229.542ZM70.886 223.656H68.888V231H67.7V223.656H65.918V222.576H67.7V220.272C67.7 219.156 67.958 218.364 68.474 217.896C68.99 217.416 69.674 217.176 70.526 217.176C70.694 217.176 70.862 217.188 71.03 217.212C71.21 217.236 71.384 217.266 71.552 217.302L71.336 218.382C71.192 218.346 71.042 218.316 70.886 218.292C70.73 218.268 70.574 218.256 70.418 218.256C70.094 218.256 69.83 218.31 69.626 218.418C69.422 218.526 69.266 218.682 69.158 218.886C69.05 219.078 68.978 219.306 68.942 219.57C68.906 219.834 68.888 220.116 68.888 220.416V222.576H70.886V223.656ZM72.4142 225.204C72.4142 224.832 72.4022 224.454 72.3782 224.07C72.3662 223.686 72.3542 223.188 72.3422 222.576H73.5122V224.142H73.5482C73.6322 223.914 73.7522 223.698 73.9082 223.494C74.0642 223.278 74.2502 223.086 74.4662 222.918C74.6942 222.75 74.9522 222.618 75.2402 222.522C75.5402 222.414 75.8762 222.36 76.2482 222.36C76.5842 222.36 76.8782 222.396 77.1302 222.468L76.8962 223.638C76.7402 223.578 76.5122 223.548 76.2122 223.548C75.7562 223.548 75.3662 223.638 75.0422 223.818C74.7182 223.986 74.4482 224.208 74.2322 224.484C74.0162 224.748 73.8542 225.036 73.7462 225.348C73.6502 225.66 73.6022 225.96 73.6022 226.248V231H72.4142V225.204ZM84.5003 226.14C84.5003 225.336 84.2603 224.688 83.7803 224.196C83.3003 223.692 82.6283 223.44 81.7643 223.44C81.3803 223.44 81.0083 223.518 80.6483 223.674C80.2883 223.818 79.9703 224.016 79.6943 224.268C79.4303 224.52 79.2143 224.808 79.0463 225.132C78.8903 225.456 78.8123 225.792 78.8123 226.14H84.5003ZM78.7763 227.112C78.8123 227.532 78.9143 227.928 79.0823 228.3C79.2503 228.672 79.4723 228.996 79.7483 229.272C80.0243 229.536 80.3423 229.746 80.7023 229.902C81.0623 230.058 81.4523 230.136 81.8723 230.136C82.5083 230.136 83.0543 229.992 83.5103 229.704C83.9783 229.404 84.3323 229.062 84.5723 228.678L85.4903 229.434C84.9863 230.07 84.4283 230.526 83.8163 230.802C83.2163 231.078 82.5683 231.216 81.8723 231.216C81.2483 231.216 80.6663 231.108 80.1263 230.892C79.5983 230.664 79.1423 230.352 78.7583 229.956C78.3743 229.56 78.0683 229.092 77.8403 228.552C77.6243 228.012 77.5163 227.424 77.5163 226.788C77.5163 226.152 77.6243 225.564 77.8403 225.024C78.0563 224.484 78.3563 224.016 78.7403 223.62C79.1243 223.224 79.5743 222.918 80.0903 222.702C80.6063 222.474 81.1643 222.36 81.7643 222.36C82.4003 222.36 82.9703 222.474 83.4743 222.702C83.9783 222.93 84.3983 223.236 84.7343 223.62C85.0823 223.992 85.3463 224.436 85.5263 224.952C85.7063 225.456 85.7963 225.996 85.7963 226.572V227.112H78.7763ZM92.4143 224.574C92.2343 224.226 91.9943 223.95 91.6943 223.746C91.3943 223.542 91.0283 223.44 90.5963 223.44C90.3923 223.44 90.1823 223.464 89.9663 223.512C89.7623 223.56 89.5763 223.638 89.4083 223.746C89.2403 223.842 89.1023 223.968 88.9943 224.124C88.8983 224.28 88.8503 224.472 88.8503 224.7C88.8503 225.096 88.9883 225.384 89.2643 225.564C89.5403 225.744 89.9543 225.9 90.5063 226.032L91.7123 226.32C92.3003 226.452 92.7863 226.722 93.1703 227.13C93.5663 227.526 93.7643 228.024 93.7643 228.624C93.7643 229.08 93.6683 229.476 93.4763 229.812C93.2963 230.136 93.0503 230.406 92.7383 230.622C92.4383 230.826 92.0903 230.976 91.6943 231.072C91.2983 231.168 90.8963 231.216 90.4883 231.216C89.8403 231.216 89.2343 231.096 88.6703 230.856C88.1183 230.604 87.6443 230.178 87.2483 229.578L88.2743 228.876C88.5143 229.26 88.8143 229.566 89.1743 229.794C89.5463 230.022 89.9843 230.136 90.4883 230.136C90.7283 230.136 90.9683 230.112 91.2083 230.064C91.4483 230.004 91.6583 229.92 91.8383 229.812C92.0303 229.692 92.1803 229.542 92.2883 229.362C92.4083 229.182 92.4683 228.972 92.4683 228.732C92.4683 228.312 92.3123 228.012 92.0003 227.832C91.6883 227.64 91.3103 227.49 90.8663 227.382L89.7143 227.112C89.5703 227.076 89.3723 227.016 89.1203 226.932C88.8803 226.848 88.6403 226.722 88.4003 226.554C88.1723 226.386 87.9743 226.17 87.8063 225.906C87.6383 225.63 87.5543 225.294 87.5543 224.898C87.5543 224.466 87.6383 224.088 87.8063 223.764C87.9863 223.44 88.2203 223.176 88.5083 222.972C88.8083 222.768 89.1443 222.618 89.5163 222.522C89.8883 222.414 90.2723 222.36 90.6683 222.36C91.2563 222.36 91.8023 222.474 92.3063 222.702C92.8103 222.93 93.2003 223.32 93.4763 223.872L92.4143 224.574ZM95.6144 217.392H96.8024V223.926H96.8384C96.9704 223.698 97.1384 223.488 97.3424 223.296C97.5464 223.104 97.7744 222.942 98.0264 222.81C98.2784 222.666 98.5424 222.558 98.8184 222.486C99.1064 222.402 99.3884 222.36 99.6644 222.36C100.744 222.36 101.542 222.648 102.058 223.224C102.574 223.788 102.832 224.598 102.832 225.654V231H101.644V226.338C101.644 225.402 101.482 224.688 101.158 224.196C100.834 223.692 100.234 223.44 99.3584 223.44C99.2984 223.44 99.1304 223.464 98.8544 223.512C98.5784 223.56 98.2844 223.692 97.9724 223.908C97.6724 224.124 97.4024 224.448 97.1624 224.88C96.9224 225.312 96.8024 225.912 96.8024 226.68V231H95.6144V217.392ZM107.074 231H105.886V217.392H107.074V231ZM113.073 229.542L115.647 222.576H117.087L112.875 233.196C112.623 233.844 112.299 234.36 111.903 234.744C111.519 235.128 110.961 235.32 110.229 235.32C110.049 235.32 109.863 235.314 109.671 235.302C109.491 235.29 109.311 235.254 109.131 235.194L109.257 234.042C109.509 234.174 109.809 234.24 110.157 234.24C110.577 234.24 110.907 234.108 111.147 233.844C111.387 233.58 111.597 233.208 111.777 232.728L112.389 231.108L108.933 222.576H110.427L113.073 229.542ZM123.76 225.204C123.76 224.832 123.748 224.454 123.724 224.07C123.712 223.686 123.7 223.188 123.688 222.576H124.858V224.142H124.894C124.978 223.914 125.098 223.698 125.254 223.494C125.41 223.278 125.596 223.086 125.812 222.918C126.04 222.75 126.298 222.618 126.586 222.522C126.886 222.414 127.222 222.36 127.594 222.36C127.93 222.36 128.224 222.396 128.476 222.468L128.242 223.638C128.086 223.578 127.858 223.548 127.558 223.548C127.102 223.548 126.712 223.638 126.388 223.818C126.064 223.986 125.794 224.208 125.578 224.484C125.362 224.748 125.2 225.036 125.092 225.348C124.996 225.66 124.948 225.96 124.948 226.248V231H123.76V225.204ZM136.512 226.788C136.512 226.32 136.434 225.882 136.278 225.474C136.134 225.066 135.924 224.712 135.648 224.412C135.372 224.112 135.036 223.878 134.64 223.71C134.256 223.53 133.818 223.44 133.326 223.44C132.834 223.44 132.39 223.53 131.994 223.71C131.61 223.878 131.28 224.112 131.004 224.412C130.74 224.712 130.53 225.066 130.374 225.474C130.23 225.882 130.158 226.32 130.158 226.788C130.158 227.256 130.23 227.694 130.374 228.102C130.53 228.51 130.74 228.864 131.004 229.164C131.28 229.464 131.61 229.704 131.994 229.884C132.39 230.052 132.834 230.136 133.326 230.136C133.818 230.136 134.256 230.052 134.64 229.884C135.036 229.704 135.372 229.464 135.648 229.164C135.924 228.864 136.134 228.51 136.278 228.102C136.434 227.694 136.512 227.256 136.512 226.788ZM137.808 226.788C137.808 227.424 137.694 228.012 137.466 228.552C137.25 229.092 136.944 229.56 136.548 229.956C136.152 230.352 135.678 230.664 135.126 230.892C134.586 231.108 133.986 231.216 133.326 231.216C132.678 231.216 132.078 231.108 131.526 230.892C130.986 230.664 130.518 230.352 130.122 229.956C129.726 229.56 129.414 229.092 129.186 228.552C128.97 228.012 128.862 227.424 128.862 226.788C128.862 226.152 128.97 225.564 129.186 225.024C129.414 224.484 129.726 224.016 130.122 223.62C130.518 223.224 130.986 222.918 131.526 222.702C132.078 222.474 132.678 222.36 133.326 222.36C133.986 222.36 134.586 222.474 135.126 222.702C135.678 222.918 136.152 223.224 136.548 223.62C136.944 224.016 137.25 224.484 137.466 225.024C137.694 225.564 137.808 226.152 137.808 226.788ZM144.752 226.806C144.452 226.806 144.074 226.824 143.618 226.86C143.174 226.884 142.742 226.956 142.322 227.076C141.914 227.184 141.56 227.358 141.26 227.598C140.972 227.838 140.828 228.168 140.828 228.588C140.828 228.864 140.882 229.104 140.99 229.308C141.11 229.5 141.266 229.662 141.458 229.794C141.65 229.914 141.86 230.004 142.088 230.064C142.328 230.112 142.568 230.136 142.808 230.136C143.24 230.136 143.612 230.064 143.924 229.92C144.248 229.776 144.518 229.584 144.734 229.344C144.95 229.092 145.106 228.804 145.202 228.48C145.31 228.144 145.364 227.79 145.364 227.418V226.806H144.752ZM145.364 225.834V225.618C145.364 224.166 144.644 223.44 143.204 223.44C142.22 223.44 141.362 223.77 140.63 224.43L139.91 223.584C140.702 222.768 141.89 222.36 143.474 222.36C143.882 222.36 144.272 222.42 144.644 222.54C145.028 222.66 145.358 222.846 145.634 223.098C145.91 223.338 146.132 223.644 146.3 224.016C146.468 224.388 146.552 224.832 146.552 225.348V229.11C146.552 229.434 146.564 229.776 146.588 230.136C146.624 230.484 146.66 230.772 146.696 231H145.544C145.508 230.796 145.478 230.574 145.454 230.334C145.442 230.094 145.436 229.86 145.436 229.632H145.4C145.052 230.196 144.638 230.604 144.158 230.856C143.69 231.096 143.114 231.216 142.43 231.216C142.058 231.216 141.698 231.162 141.35 231.054C141.002 230.958 140.69 230.808 140.414 230.604C140.15 230.388 139.934 230.13 139.766 229.83C139.61 229.518 139.532 229.158 139.532 228.75C139.532 228.066 139.706 227.532 140.054 227.148C140.414 226.752 140.858 226.458 141.386 226.266C141.926 226.074 142.496 225.954 143.096 225.906C143.708 225.858 144.266 225.834 144.77 225.834H145.364ZM153.762 224.574C153.582 224.226 153.342 223.95 153.042 223.746C152.742 223.542 152.376 223.44 151.944 223.44C151.74 223.44 151.53 223.464 151.314 223.512C151.11 223.56 150.924 223.638 150.756 223.746C150.588 223.842 150.45 223.968 150.342 224.124C150.246 224.28 150.198 224.472 150.198 224.7C150.198 225.096 150.336 225.384 150.612 225.564C150.888 225.744 151.302 225.9 151.854 226.032L153.06 226.32C153.648 226.452 154.134 226.722 154.518 227.13C154.914 227.526 155.112 228.024 155.112 228.624C155.112 229.08 155.016 229.476 154.824 229.812C154.644 230.136 154.398 230.406 154.086 230.622C153.786 230.826 153.438 230.976 153.042 231.072C152.646 231.168 152.244 231.216 151.836 231.216C151.188 231.216 150.582 231.096 150.018 230.856C149.466 230.604 148.992 230.178 148.596 229.578L149.622 228.876C149.862 229.26 150.162 229.566 150.522 229.794C150.894 230.022 151.332 230.136 151.836 230.136C152.076 230.136 152.316 230.112 152.556 230.064C152.796 230.004 153.006 229.92 153.186 229.812C153.378 229.692 153.528 229.542 153.636 229.362C153.756 229.182 153.816 228.972 153.816 228.732C153.816 228.312 153.66 228.012 153.348 227.832C153.036 227.64 152.658 227.49 152.214 227.382L151.062 227.112C150.918 227.076 150.72 227.016 150.468 226.932C150.228 226.848 149.988 226.722 149.748 226.554C149.52 226.386 149.322 226.17 149.154 225.906C148.986 225.63 148.902 225.294 148.902 224.898C148.902 224.466 148.986 224.088 149.154 223.764C149.334 223.44 149.568 223.176 149.856 222.972C150.156 222.768 150.492 222.618 150.864 222.522C151.236 222.414 151.62 222.36 152.016 222.36C152.604 222.36 153.15 222.474 153.654 222.702C154.158 222.93 154.548 223.32 154.824 223.872L153.762 224.574ZM161.318 223.656H158.888V228.624C158.888 228.936 158.918 229.194 158.978 229.398C159.038 229.59 159.122 229.74 159.23 229.848C159.338 229.956 159.464 230.034 159.608 230.082C159.764 230.118 159.932 230.136 160.112 230.136C160.316 230.136 160.526 230.106 160.742 230.046C160.958 229.986 161.156 229.908 161.336 229.812L161.39 230.91C160.946 231.114 160.412 231.216 159.788 231.216C159.56 231.216 159.32 231.186 159.068 231.126C158.828 231.066 158.606 230.952 158.402 230.784C158.198 230.616 158.03 230.388 157.898 230.1C157.766 229.812 157.7 229.434 157.7 228.966V223.656H155.918V222.576H157.7V220.2H158.888V222.576H161.318V223.656ZM169.491 226.14C169.491 225.336 169.251 224.688 168.771 224.196C168.291 223.692 167.619 223.44 166.755 223.44C166.371 223.44 165.999 223.518 165.639 223.674C165.279 223.818 164.961 224.016 164.685 224.268C164.421 224.52 164.205 224.808 164.037 225.132C163.881 225.456 163.803 225.792 163.803 226.14H169.491ZM163.767 227.112C163.803 227.532 163.905 227.928 164.073 228.3C164.241 228.672 164.463 228.996 164.739 229.272C165.015 229.536 165.333 229.746 165.693 229.902C166.053 230.058 166.443 230.136 166.863 230.136C167.499 230.136 168.045 229.992 168.501 229.704C168.969 229.404 169.323 229.062 169.563 228.678L170.481 229.434C169.977 230.07 169.419 230.526 168.807 230.802C168.207 231.078 167.559 231.216 166.863 231.216C166.239 231.216 165.657 231.108 165.117 230.892C164.589 230.664 164.133 230.352 163.749 229.956C163.365 229.56 163.059 229.092 162.831 228.552C162.615 228.012 162.507 227.424 162.507 226.788C162.507 226.152 162.615 225.564 162.831 225.024C163.047 224.484 163.347 224.016 163.731 223.62C164.115 223.224 164.565 222.918 165.081 222.702C165.597 222.474 166.155 222.36 166.755 222.36C167.391 222.36 167.961 222.474 168.465 222.702C168.969 222.93 169.389 223.236 169.725 223.62C170.073 223.992 170.337 224.436 170.517 224.952C170.697 225.456 170.787 225.996 170.787 226.572V227.112H163.767ZM173.661 226.788C173.661 227.256 173.733 227.694 173.877 228.102C174.033 228.51 174.249 228.864 174.525 229.164C174.801 229.464 175.131 229.704 175.515 229.884C175.911 230.052 176.355 230.136 176.847 230.136C177.327 230.136 177.771 230.052 178.179 229.884C178.599 229.704 178.959 229.464 179.259 229.164C179.559 228.864 179.793 228.51 179.961 228.102C180.129 227.694 180.213 227.256 180.213 226.788C180.213 226.32 180.129 225.882 179.961 225.474C179.793 225.066 179.559 224.712 179.259 224.412C178.959 224.112 178.599 223.878 178.179 223.71C177.771 223.53 177.327 223.44 176.847 223.44C176.355 223.44 175.911 223.53 175.515 223.71C175.131 223.878 174.801 224.112 174.525 224.412C174.249 224.712 174.033 225.066 173.877 225.474C173.733 225.882 173.661 226.32 173.661 226.788ZM181.347 231H180.159V229.596H180.123C179.931 229.884 179.703 230.13 179.439 230.334C179.175 230.538 178.899 230.706 178.611 230.838C178.323 230.97 178.023 231.066 177.711 231.126C177.411 231.186 177.123 231.216 176.847 231.216C176.187 231.216 175.581 231.108 175.029 230.892C174.489 230.664 174.021 230.352 173.625 229.956C173.229 229.56 172.917 229.092 172.689 228.552C172.473 228.012 172.365 227.424 172.365 226.788C172.365 226.152 172.473 225.564 172.689 225.024C172.917 224.484 173.229 224.016 173.625 223.62C174.021 223.224 174.489 222.918 175.029 222.702C175.581 222.474 176.187 222.36 176.847 222.36C177.123 222.36 177.411 222.39 177.711 222.45C178.023 222.51 178.323 222.606 178.611 222.738C178.899 222.87 179.175 223.038 179.439 223.242C179.703 223.446 179.931 223.692 180.123 223.98H180.159V217.392H181.347V231ZM195.092 224.556C194.888 224.244 194.6 223.98 194.228 223.764C193.868 223.548 193.454 223.44 192.986 223.44C192.494 223.428 192.05 223.506 191.654 223.674C191.27 223.842 190.94 224.076 190.664 224.376C190.388 224.676 190.178 225.036 190.034 225.456C189.89 225.864 189.818 226.308 189.818 226.788C189.818 227.268 189.89 227.718 190.034 228.138C190.178 228.546 190.388 228.9 190.664 229.2C190.94 229.5 191.27 229.734 191.654 229.902C192.05 230.07 192.494 230.148 192.986 230.136C193.454 230.136 193.868 230.028 194.228 229.812C194.6 229.596 194.888 229.332 195.092 229.02L196.064 229.758C195.644 230.25 195.17 230.616 194.642 230.856C194.114 231.084 193.562 231.204 192.986 231.216C192.302 231.228 191.684 231.126 191.132 230.91C190.58 230.682 190.106 230.37 189.71 229.974C189.326 229.578 189.032 229.11 188.828 228.57C188.624 228.018 188.522 227.424 188.522 226.788C188.522 226.152 188.624 225.564 188.828 225.024C189.032 224.472 189.326 223.998 189.71 223.602C190.106 223.206 190.58 222.9 191.132 222.684C191.684 222.456 192.302 222.348 192.986 222.36C193.562 222.372 194.114 222.498 194.642 222.738C195.17 222.966 195.644 223.326 196.064 223.818L195.092 224.556ZM204.856 226.788C204.856 226.32 204.778 225.882 204.622 225.474C204.478 225.066 204.268 224.712 203.992 224.412C203.716 224.112 203.38 223.878 202.984 223.71C202.6 223.53 202.162 223.44 201.67 223.44C201.178 223.44 200.734 223.53 200.338 223.71C199.954 223.878 199.624 224.112 199.348 224.412C199.084 224.712 198.874 225.066 198.718 225.474C198.574 225.882 198.502 226.32 198.502 226.788C198.502 227.256 198.574 227.694 198.718 228.102C198.874 228.51 199.084 228.864 199.348 229.164C199.624 229.464 199.954 229.704 200.338 229.884C200.734 230.052 201.178 230.136 201.67 230.136C202.162 230.136 202.6 230.052 202.984 229.884C203.38 229.704 203.716 229.464 203.992 229.164C204.268 228.864 204.478 228.51 204.622 228.102C204.778 227.694 204.856 227.256 204.856 226.788ZM206.152 226.788C206.152 227.424 206.038 228.012 205.81 228.552C205.594 229.092 205.288 229.56 204.892 229.956C204.496 230.352 204.022 230.664 203.47 230.892C202.93 231.108 202.33 231.216 201.67 231.216C201.022 231.216 200.422 231.108 199.87 230.892C199.33 230.664 198.862 230.352 198.466 229.956C198.07 229.56 197.758 229.092 197.53 228.552C197.314 228.012 197.206 227.424 197.206 226.788C197.206 226.152 197.314 225.564 197.53 225.024C197.758 224.484 198.07 224.016 198.466 223.62C198.862 223.224 199.33 222.918 199.87 222.702C200.422 222.474 201.022 222.36 201.67 222.36C202.33 222.36 202.93 222.474 203.47 222.702C204.022 222.918 204.496 223.224 204.892 223.62C205.288 224.016 205.594 224.484 205.81 225.024C206.038 225.564 206.152 226.152 206.152 226.788ZM212.232 223.656H210.234V231H209.046V223.656H207.264V222.576H209.046V220.272C209.046 219.156 209.304 218.364 209.82 217.896C210.336 217.416 211.02 217.176 211.872 217.176C212.04 217.176 212.208 217.188 212.376 217.212C212.556 217.236 212.73 217.266 212.898 217.302L212.682 218.382C212.538 218.346 212.388 218.316 212.232 218.292C212.076 218.268 211.92 218.256 211.764 218.256C211.44 218.256 211.176 218.31 210.972 218.418C210.768 218.526 210.612 218.682 210.504 218.886C210.396 219.078 210.324 219.306 210.288 219.57C210.252 219.834 210.234 220.116 210.234 220.416V222.576H212.232V223.656ZM217.241 223.656H215.243V231H214.055V223.656H212.273V222.576H214.055V220.272C214.055 219.156 214.313 218.364 214.829 217.896C215.345 217.416 216.029 217.176 216.881 217.176C217.049 217.176 217.217 217.188 217.385 217.212C217.565 217.236 217.739 217.266 217.907 217.302L217.691 218.382C217.547 218.346 217.397 218.316 217.241 218.292C217.085 218.268 216.929 218.256 216.773 218.256C216.449 218.256 216.185 218.31 215.981 218.418C215.777 218.526 215.621 218.682 215.513 218.886C215.405 219.078 215.333 219.306 215.297 219.57C215.261 219.834 215.243 220.116 215.243 220.416V222.576H217.241V223.656ZM225.196 226.14C225.196 225.336 224.956 224.688 224.476 224.196C223.996 223.692 223.324 223.44 222.46 223.44C222.076 223.44 221.704 223.518 221.344 223.674C220.984 223.818 220.666 224.016 220.39 224.268C220.126 224.52 219.91 224.808 219.742 225.132C219.586 225.456 219.508 225.792 219.508 226.14H225.196ZM219.472 227.112C219.508 227.532 219.61 227.928 219.778 228.3C219.946 228.672 220.168 228.996 220.444 229.272C220.72 229.536 221.038 229.746 221.398 229.902C221.758 230.058 222.148 230.136 222.568 230.136C223.204 230.136 223.75 229.992 224.206 229.704C224.674 229.404 225.028 229.062 225.268 228.678L226.186 229.434C225.682 230.07 225.124 230.526 224.512 230.802C223.912 231.078 223.264 231.216 222.568 231.216C221.944 231.216 221.362 231.108 220.822 230.892C220.294 230.664 219.838 230.352 219.454 229.956C219.07 229.56 218.764 229.092 218.536 228.552C218.32 228.012 218.212 227.424 218.212 226.788C218.212 226.152 218.32 225.564 218.536 225.024C218.752 224.484 219.052 224.016 219.436 223.62C219.82 223.224 220.27 222.918 220.786 222.702C221.302 222.474 221.86 222.36 222.46 222.36C223.096 222.36 223.666 222.474 224.17 222.702C224.674 222.93 225.094 223.236 225.43 223.62C225.778 223.992 226.042 224.436 226.222 224.952C226.402 225.456 226.492 225.996 226.492 226.572V227.112H219.472ZM235.198 226.14C235.198 225.336 234.958 224.688 234.478 224.196C233.998 223.692 233.326 223.44 232.462 223.44C232.078 223.44 231.706 223.518 231.346 223.674C230.986 223.818 230.668 224.016 230.392 224.268C230.128 224.52 229.912 224.808 229.744 225.132C229.588 225.456 229.51 225.792 229.51 226.14H235.198ZM229.474 227.112C229.51 227.532 229.612 227.928 229.78 228.3C229.948 228.672 230.17 228.996 230.446 229.272C230.722 229.536 231.04 229.746 231.4 229.902C231.76 230.058 232.15 230.136 232.57 230.136C233.206 230.136 233.752 229.992 234.208 229.704C234.676 229.404 235.03 229.062 235.27 228.678L236.188 229.434C235.684 230.07 235.126 230.526 234.514 230.802C233.914 231.078 233.266 231.216 232.57 231.216C231.946 231.216 231.364 231.108 230.824 230.892C230.296 230.664 229.84 230.352 229.456 229.956C229.072 229.56 228.766 229.092 228.538 228.552C228.322 228.012 228.214 227.424 228.214 226.788C228.214 226.152 228.322 225.564 228.538 225.024C228.754 224.484 229.054 224.016 229.438 223.62C229.822 223.224 230.272 222.918 230.788 222.702C231.304 222.474 231.862 222.36 232.462 222.36C233.098 222.36 233.668 222.474 234.172 222.702C234.676 222.93 235.096 223.236 235.432 223.62C235.78 223.992 236.044 224.436 236.224 224.952C236.404 225.456 236.494 225.996 236.494 226.572V227.112H229.474ZM243.657 224.448C243.657 224.136 243.645 223.824 243.621 223.512C243.609 223.2 243.591 222.888 243.567 222.576H244.845V223.854H244.881C245.169 223.362 245.565 222.99 246.069 222.738C246.585 222.486 247.095 222.36 247.599 222.36C247.827 222.36 248.067 222.384 248.319 222.432C248.583 222.48 248.835 222.57 249.075 222.702C249.315 222.822 249.537 222.996 249.741 223.224C249.957 223.452 250.137 223.746 250.281 224.106C250.521 223.566 250.899 223.14 251.415 222.828C251.943 222.516 252.489 222.36 253.053 222.36C254.133 222.36 254.931 222.648 255.447 223.224C255.963 223.788 256.221 224.598 256.221 225.654V231H255.033V226.086C255.033 225.234 254.883 224.58 254.583 224.124C254.283 223.668 253.725 223.44 252.909 223.44C252.465 223.44 252.093 223.53 251.793 223.71C251.493 223.878 251.247 224.106 251.055 224.394C250.875 224.682 250.743 225.012 250.659 225.384C250.575 225.744 250.533 226.122 250.533 226.518V231H249.345V226.086C249.345 225.234 249.195 224.58 248.895 224.124C248.595 223.668 248.037 223.44 247.221 223.44C247.149 223.44 246.981 223.464 246.717 223.512C246.465 223.56 246.201 223.692 245.925 223.908C245.649 224.124 245.397 224.448 245.169 224.88C244.953 225.312 244.845 225.912 244.845 226.68V231H243.657V224.448ZM263.773 226.806C263.473 226.806 263.095 226.824 262.639 226.86C262.195 226.884 261.763 226.956 261.343 227.076C260.935 227.184 260.581 227.358 260.281 227.598C259.993 227.838 259.849 228.168 259.849 228.588C259.849 228.864 259.903 229.104 260.011 229.308C260.131 229.5 260.287 229.662 260.479 229.794C260.671 229.914 260.881 230.004 261.109 230.064C261.349 230.112 261.589 230.136 261.829 230.136C262.261 230.136 262.633 230.064 262.945 229.92C263.269 229.776 263.539 229.584 263.755 229.344C263.971 229.092 264.127 228.804 264.223 228.48C264.331 228.144 264.385 227.79 264.385 227.418V226.806H263.773ZM264.385 225.834V225.618C264.385 224.166 263.665 223.44 262.225 223.44C261.241 223.44 260.383 223.77 259.651 224.43L258.931 223.584C259.723 222.768 260.911 222.36 262.495 222.36C262.903 222.36 263.293 222.42 263.665 222.54C264.049 222.66 264.379 222.846 264.655 223.098C264.931 223.338 265.153 223.644 265.321 224.016C265.489 224.388 265.573 224.832 265.573 225.348V229.11C265.573 229.434 265.585 229.776 265.609 230.136C265.645 230.484 265.681 230.772 265.717 231H264.565C264.529 230.796 264.499 230.574 264.475 230.334C264.463 230.094 264.457 229.86 264.457 229.632H264.421C264.073 230.196 263.659 230.604 263.179 230.856C262.711 231.096 262.135 231.216 261.451 231.216C261.079 231.216 260.719 231.162 260.371 231.054C260.023 230.958 259.711 230.808 259.435 230.604C259.171 230.388 258.955 230.13 258.787 229.83C258.631 229.518 258.553 229.158 258.553 228.75C258.553 228.066 258.727 227.532 259.075 227.148C259.435 226.752 259.879 226.458 260.407 226.266C260.947 226.074 261.517 225.954 262.117 225.906C262.729 225.858 263.287 225.834 263.791 225.834H264.385ZM269.039 226.788C269.039 227.256 269.111 227.694 269.255 228.102C269.411 228.51 269.627 228.864 269.903 229.164C270.179 229.464 270.509 229.704 270.893 229.884C271.289 230.052 271.733 230.136 272.225 230.136C272.705 230.136 273.149 230.052 273.557 229.884C273.977 229.704 274.337 229.464 274.637 229.164C274.937 228.864 275.171 228.51 275.339 228.102C275.507 227.694 275.591 227.256 275.591 226.788C275.591 226.32 275.507 225.882 275.339 225.474C275.171 225.066 274.937 224.712 274.637 224.412C274.337 224.112 273.977 223.878 273.557 223.71C273.149 223.53 272.705 223.44 272.225 223.44C271.733 223.44 271.289 223.53 270.893 223.71C270.509 223.878 270.179 224.112 269.903 224.412C269.627 224.712 269.411 225.066 269.255 225.474C269.111 225.882 269.039 226.32 269.039 226.788ZM276.725 231H275.537V229.596H275.501C275.309 229.884 275.081 230.13 274.817 230.334C274.553 230.538 274.277 230.706 273.989 230.838C273.701 230.97 273.401 231.066 273.089 231.126C272.789 231.186 272.501 231.216 272.225 231.216C271.565 231.216 270.959 231.108 270.407 230.892C269.867 230.664 269.399 230.352 269.003 229.956C268.607 229.56 268.295 229.092 268.067 228.552C267.851 228.012 267.743 227.424 267.743 226.788C267.743 226.152 267.851 225.564 268.067 225.024C268.295 224.484 268.607 224.016 269.003 223.62C269.399 223.224 269.867 222.918 270.407 222.702C270.959 222.474 271.565 222.36 272.225 222.36C272.501 222.36 272.789 222.39 273.089 222.45C273.401 222.51 273.701 222.606 273.989 222.738C274.277 222.87 274.553 223.038 274.817 223.242C275.081 223.446 275.309 223.692 275.501 223.98H275.537V217.392H276.725V231ZM285.875 226.14C285.875 225.336 285.635 224.688 285.155 224.196C284.675 223.692 284.003 223.44 283.139 223.44C282.755 223.44 282.383 223.518 282.023 223.674C281.663 223.818 281.345 224.016 281.069 224.268C280.805 224.52 280.589 224.808 280.421 225.132C280.265 225.456 280.187 225.792 280.187 226.14H285.875ZM280.151 227.112C280.187 227.532 280.289 227.928 280.457 228.3C280.625 228.672 280.847 228.996 281.123 229.272C281.399 229.536 281.717 229.746 282.077 229.902C282.437 230.058 282.827 230.136 283.247 230.136C283.883 230.136 284.429 229.992 284.885 229.704C285.353 229.404 285.707 229.062 285.947 228.678L286.865 229.434C286.361 230.07 285.803 230.526 285.191 230.802C284.591 231.078 283.943 231.216 283.247 231.216C282.623 231.216 282.041 231.108 281.501 230.892C280.973 230.664 280.517 230.352 280.133 229.956C279.749 229.56 279.443 229.092 279.215 228.552C278.999 228.012 278.891 227.424 278.891 226.788C278.891 226.152 278.999 225.564 279.215 225.024C279.431 224.484 279.731 224.016 280.115 223.62C280.499 223.224 280.949 222.918 281.465 222.702C281.981 222.474 282.539 222.36 283.139 222.36C283.775 222.36 284.345 222.474 284.849 222.702C285.353 222.93 285.773 223.236 286.109 223.62C286.457 223.992 286.721 224.436 286.901 224.952C287.081 225.456 287.171 225.996 287.171 226.572V227.112H280.151ZM296.063 219.336C296.063 219.588 295.973 219.798 295.793 219.966C295.613 220.122 295.415 220.2 295.199 220.2C294.983 220.2 294.785 220.122 294.605 219.966C294.425 219.798 294.335 219.588 294.335 219.336C294.335 219.084 294.425 218.88 294.605 218.724C294.785 218.556 294.983 218.472 295.199 218.472C295.415 218.472 295.613 218.556 295.793 218.724C295.973 218.88 296.063 219.084 296.063 219.336ZM292.643 234.114L292.697 234.132C292.793 234.156 292.901 234.18 293.021 234.204C293.129 234.228 293.231 234.24 293.327 234.24C293.615 234.24 293.843 234.186 294.011 234.078C294.191 233.97 294.323 233.826 294.407 233.646C294.491 233.478 294.545 233.292 294.569 233.088C294.593 232.884 294.605 232.68 294.605 232.476V222.576H295.793V232.674C295.793 232.794 295.787 232.998 295.775 233.286C295.763 233.586 295.685 233.886 295.541 234.186C295.409 234.486 295.175 234.75 294.839 234.978C294.515 235.206 294.041 235.32 293.417 235.32C293.081 235.32 292.769 235.26 292.481 235.14L292.643 234.114ZM304.743 231C304.719 230.772 304.701 230.55 304.689 230.334C304.689 230.106 304.689 229.878 304.689 229.65H304.653C304.521 229.878 304.353 230.088 304.149 230.28C303.945 230.472 303.717 230.64 303.465 230.784C303.213 230.916 302.943 231.018 302.655 231.09C302.379 231.174 302.103 231.216 301.827 231.216C300.747 231.216 299.949 230.934 299.433 230.37C298.917 229.794 298.659 228.978 298.659 227.922V222.576H299.847V227.238C299.847 227.706 299.883 228.12 299.955 228.48C300.027 228.84 300.147 229.146 300.315 229.398C300.495 229.638 300.729 229.824 301.017 229.956C301.317 230.076 301.689 230.136 302.133 230.136C302.193 230.136 302.361 230.112 302.637 230.064C302.913 230.016 303.201 229.884 303.501 229.668C303.813 229.452 304.089 229.128 304.329 228.696C304.569 228.264 304.689 227.664 304.689 226.896V222.576H305.877V229.146C305.877 229.374 305.883 229.662 305.895 230.01C305.919 230.358 305.943 230.688 305.967 231H304.743ZM313.125 224.574C312.945 224.226 312.705 223.95 312.405 223.746C312.105 223.542 311.739 223.44 311.307 223.44C311.103 223.44 310.893 223.464 310.677 223.512C310.473 223.56 310.287 223.638 310.119 223.746C309.951 223.842 309.813 223.968 309.705 224.124C309.609 224.28 309.561 224.472 309.561 224.7C309.561 225.096 309.699 225.384 309.975 225.564C310.251 225.744 310.665 225.9 311.217 226.032L312.423 226.32C313.011 226.452 313.497 226.722 313.881 227.13C314.277 227.526 314.475 228.024 314.475 228.624C314.475 229.08 314.379 229.476 314.187 229.812C314.007 230.136 313.761 230.406 313.449 230.622C313.149 230.826 312.801 230.976 312.405 231.072C312.009 231.168 311.607 231.216 311.199 231.216C310.551 231.216 309.945 231.096 309.381 230.856C308.829 230.604 308.355 230.178 307.959 229.578L308.985 228.876C309.225 229.26 309.525 229.566 309.885 229.794C310.257 230.022 310.695 230.136 311.199 230.136C311.439 230.136 311.679 230.112 311.919 230.064C312.159 230.004 312.369 229.92 312.549 229.812C312.741 229.692 312.891 229.542 312.999 229.362C313.119 229.182 313.179 228.972 313.179 228.732C313.179 228.312 313.023 228.012 312.711 227.832C312.399 227.64 312.021 227.49 311.577 227.382L310.425 227.112C310.281 227.076 310.083 227.016 309.831 226.932C309.591 226.848 309.351 226.722 309.111 226.554C308.883 226.386 308.685 226.17 308.517 225.906C308.349 225.63 308.265 225.294 308.265 224.898C308.265 224.466 308.349 224.088 308.517 223.764C308.697 223.44 308.931 223.176 309.219 222.972C309.519 222.768 309.855 222.618 310.227 222.522C310.599 222.414 310.983 222.36 311.379 222.36C311.967 222.36 312.513 222.474 313.017 222.702C313.521 222.93 313.911 223.32 314.187 223.872L313.125 224.574ZM320.681 223.656H318.251V228.624C318.251 228.936 318.281 229.194 318.341 229.398C318.401 229.59 318.485 229.74 318.593 229.848C318.701 229.956 318.827 230.034 318.971 230.082C319.127 230.118 319.295 230.136 319.475 230.136C319.679 230.136 319.889 230.106 320.105 230.046C320.321 229.986 320.519 229.908 320.699 229.812L320.753 230.91C320.309 231.114 319.775 231.216 319.151 231.216C318.923 231.216 318.683 231.186 318.431 231.126C318.191 231.066 317.969 230.952 317.765 230.784C317.561 230.616 317.393 230.388 317.261 230.1C317.129 229.812 317.063 229.434 317.063 228.966V223.656H315.281V222.576H317.063V220.2H318.251V222.576H320.681V223.656ZM331.236 223.656H329.238V231H328.05V223.656H326.268V222.576H328.05V220.272C328.05 219.156 328.308 218.364 328.824 217.896C329.34 217.416 330.024 217.176 330.876 217.176C331.044 217.176 331.212 217.188 331.38 217.212C331.56 217.236 331.734 217.266 331.902 217.302L331.686 218.382C331.542 218.346 331.392 218.316 331.236 218.292C331.08 218.268 330.924 218.256 330.768 218.256C330.444 218.256 330.18 218.31 329.976 218.418C329.772 218.526 329.616 218.682 329.508 218.886C329.4 219.078 329.328 219.306 329.292 219.57C329.256 219.834 329.238 220.116 329.238 220.416V222.576H331.236V223.656ZM339.856 226.788C339.856 226.32 339.778 225.882 339.622 225.474C339.478 225.066 339.268 224.712 338.992 224.412C338.716 224.112 338.38 223.878 337.984 223.71C337.6 223.53 337.162 223.44 336.67 223.44C336.178 223.44 335.734 223.53 335.338 223.71C334.954 223.878 334.624 224.112 334.348 224.412C334.084 224.712 333.874 225.066 333.718 225.474C333.574 225.882 333.502 226.32 333.502 226.788C333.502 227.256 333.574 227.694 333.718 228.102C333.874 228.51 334.084 228.864 334.348 229.164C334.624 229.464 334.954 229.704 335.338 229.884C335.734 230.052 336.178 230.136 336.67 230.136C337.162 230.136 337.6 230.052 337.984 229.884C338.38 229.704 338.716 229.464 338.992 229.164C339.268 228.864 339.478 228.51 339.622 228.102C339.778 227.694 339.856 227.256 339.856 226.788ZM341.152 226.788C341.152 227.424 341.038 228.012 340.81 228.552C340.594 229.092 340.288 229.56 339.892 229.956C339.496 230.352 339.022 230.664 338.47 230.892C337.93 231.108 337.33 231.216 336.67 231.216C336.022 231.216 335.422 231.108 334.87 230.892C334.33 230.664 333.862 230.352 333.466 229.956C333.07 229.56 332.758 229.092 332.53 228.552C332.314 228.012 332.206 227.424 332.206 226.788C332.206 226.152 332.314 225.564 332.53 225.024C332.758 224.484 333.07 224.016 333.466 223.62C333.862 223.224 334.33 222.918 334.87 222.702C335.422 222.474 336.022 222.36 336.67 222.36C337.33 222.36 337.93 222.474 338.47 222.702C339.022 222.918 339.496 223.224 339.892 223.62C340.288 224.016 340.594 224.484 340.81 225.024C341.038 225.564 341.152 226.152 341.152 226.788ZM343.434 225.204C343.434 224.832 343.422 224.454 343.398 224.07C343.386 223.686 343.374 223.188 343.362 222.576H344.532V224.142H344.568C344.652 223.914 344.772 223.698 344.928 223.494C345.084 223.278 345.27 223.086 345.486 222.918C345.714 222.75 345.972 222.618 346.26 222.522C346.56 222.414 346.896 222.36 347.268 222.36C347.604 222.36 347.898 222.396 348.15 222.468L347.916 223.638C347.76 223.578 347.532 223.548 347.232 223.548C346.776 223.548 346.386 223.638 346.062 223.818C345.738 223.986 345.468 224.208 345.252 224.484C345.036 224.748 344.874 225.036 344.766 225.348C344.67 225.66 344.622 225.96 344.622 226.248V231H343.434V225.204ZM357.426 229.542L360 222.576H361.44L357.228 233.196C356.976 233.844 356.652 234.36 356.256 234.744C355.872 235.128 355.314 235.32 354.582 235.32C354.402 235.32 354.216 235.314 354.024 235.302C353.844 235.29 353.664 235.254 353.484 235.194L353.61 234.042C353.862 234.174 354.162 234.24 354.51 234.24C354.93 234.24 355.26 234.108 355.5 233.844C355.74 233.58 355.95 233.208 356.13 232.728L356.742 231.108L353.286 222.576H354.78L357.426 229.542ZM370.196 226.788C370.196 226.32 370.118 225.882 369.962 225.474C369.818 225.066 369.608 224.712 369.332 224.412C369.056 224.112 368.72 223.878 368.324 223.71C367.94 223.53 367.502 223.44 367.01 223.44C366.518 223.44 366.074 223.53 365.678 223.71C365.294 223.878 364.964 224.112 364.688 224.412C364.424 224.712 364.214 225.066 364.058 225.474C363.914 225.882 363.842 226.32 363.842 226.788C363.842 227.256 363.914 227.694 364.058 228.102C364.214 228.51 364.424 228.864 364.688 229.164C364.964 229.464 365.294 229.704 365.678 229.884C366.074 230.052 366.518 230.136 367.01 230.136C367.502 230.136 367.94 230.052 368.324 229.884C368.72 229.704 369.056 229.464 369.332 229.164C369.608 228.864 369.818 228.51 369.962 228.102C370.118 227.694 370.196 227.256 370.196 226.788ZM371.492 226.788C371.492 227.424 371.378 228.012 371.15 228.552C370.934 229.092 370.628 229.56 370.232 229.956C369.836 230.352 369.362 230.664 368.81 230.892C368.27 231.108 367.67 231.216 367.01 231.216C366.362 231.216 365.762 231.108 365.21 230.892C364.67 230.664 364.202 230.352 363.806 229.956C363.41 229.56 363.098 229.092 362.87 228.552C362.654 228.012 362.546 227.424 362.546 226.788C362.546 226.152 362.654 225.564 362.87 225.024C363.098 224.484 363.41 224.016 363.806 223.62C364.202 223.224 364.67 222.918 365.21 222.702C365.762 222.474 366.362 222.36 367.01 222.36C367.67 222.36 368.27 222.474 368.81 222.702C369.362 222.918 369.836 223.224 370.232 223.62C370.628 224.016 370.934 224.484 371.15 225.024C371.378 225.564 371.492 226.152 371.492 226.788ZM379.732 231C379.708 230.772 379.69 230.55 379.678 230.334C379.678 230.106 379.678 229.878 379.678 229.65H379.642C379.51 229.878 379.342 230.088 379.138 230.28C378.934 230.472 378.706 230.64 378.454 230.784C378.202 230.916 377.932 231.018 377.644 231.09C377.368 231.174 377.092 231.216 376.816 231.216C375.736 231.216 374.938 230.934 374.422 230.37C373.906 229.794 373.648 228.978 373.648 227.922V222.576H374.836V227.238C374.836 227.706 374.872 228.12 374.944 228.48C375.016 228.84 375.136 229.146 375.304 229.398C375.484 229.638 375.718 229.824 376.006 229.956C376.306 230.076 376.678 230.136 377.122 230.136C377.182 230.136 377.35 230.112 377.626 230.064C377.902 230.016 378.19 229.884 378.49 229.668C378.802 229.452 379.078 229.128 379.318 228.696C379.558 228.264 379.678 227.664 379.678 226.896V222.576H380.866V229.146C380.866 229.374 380.872 229.662 380.884 230.01C380.908 230.358 380.932 230.688 380.956 231H379.732ZM385.828 230.136C385.828 230.388 385.738 230.616 385.558 230.82C385.378 231.012 385.144 231.108 384.856 231.108C384.568 231.108 384.334 231.012 384.154 230.82C383.974 230.616 383.884 230.388 383.884 230.136C383.884 229.884 383.974 229.662 384.154 229.47C384.334 229.266 384.568 229.164 384.856 229.164C385.144 229.164 385.378 229.266 385.558 229.47C385.738 229.662 385.828 229.884 385.828 230.136ZM6.024 248.89H8.112C8.688 248.89 9.174 248.83 9.57 248.71C9.978 248.59 10.302 248.434 10.542 248.242C10.782 248.038 10.956 247.804 11.064 247.54C11.172 247.264 11.226 246.97 11.226 246.658C11.226 246.358 11.172 246.076 11.064 245.812C10.956 245.536 10.782 245.296 10.542 245.092C10.302 244.888 9.978 244.732 9.57 244.624C9.174 244.504 8.688 244.444 8.112 244.444H6.024V248.89ZM4.728 243.256H8.436C9.732 243.256 10.752 243.538 11.496 244.102C12.252 244.666 12.63 245.518 12.63 246.658C12.63 247.798 12.252 248.656 11.496 249.232C10.752 249.796 9.732 250.078 8.436 250.078H6.024V256H4.728V243.256ZM21.8499 251.788C21.8499 251.32 21.7719 250.882 21.6159 250.474C21.4719 250.066 21.2619 249.712 20.9859 249.412C20.7099 249.112 20.3739 248.878 19.9779 248.71C19.5939 248.53 19.1559 248.44 18.6639 248.44C18.1719 248.44 17.7279 248.53 17.3319 248.71C16.9479 248.878 16.6179 249.112 16.3419 249.412C16.0779 249.712 15.8679 250.066 15.7119 250.474C15.5679 250.882 15.4959 251.32 15.4959 251.788C15.4959 252.256 15.5679 252.694 15.7119 253.102C15.8679 253.51 16.0779 253.864 16.3419 254.164C16.6179 254.464 16.9479 254.704 17.3319 254.884C17.7279 255.052 18.1719 255.136 18.6639 255.136C19.1559 255.136 19.5939 255.052 19.9779 254.884C20.3739 254.704 20.7099 254.464 20.9859 254.164C21.2619 253.864 21.4719 253.51 21.6159 253.102C21.7719 252.694 21.8499 252.256 21.8499 251.788ZM23.1459 251.788C23.1459 252.424 23.0319 253.012 22.8039 253.552C22.5879 254.092 22.2819 254.56 21.8859 254.956C21.4899 255.352 21.0159 255.664 20.4639 255.892C19.9239 256.108 19.3239 256.216 18.6639 256.216C18.0159 256.216 17.4159 256.108 16.8639 255.892C16.3239 255.664 15.8559 255.352 15.4599 254.956C15.0639 254.56 14.7519 254.092 14.5239 253.552C14.3079 253.012 14.1999 252.424 14.1999 251.788C14.1999 251.152 14.3079 250.564 14.5239 250.024C14.7519 249.484 15.0639 249.016 15.4599 248.62C15.8559 248.224 16.3239 247.918 16.8639 247.702C17.4159 247.474 18.0159 247.36 18.6639 247.36C19.3239 247.36 19.9239 247.474 20.4639 247.702C21.0159 247.918 21.4899 248.224 21.8859 248.62C22.2819 249.016 22.5879 249.484 22.8039 250.024C23.0319 250.564 23.1459 251.152 23.1459 251.788ZM31.3859 256C31.3619 255.772 31.3439 255.55 31.3319 255.334C31.3319 255.106 31.3319 254.878 31.3319 254.65H31.2959C31.1639 254.878 30.9959 255.088 30.7919 255.28C30.5879 255.472 30.3599 255.64 30.1079 255.784C29.8559 255.916 29.5859 256.018 29.2979 256.09C29.0219 256.174 28.7459 256.216 28.4699 256.216C27.3899 256.216 26.5919 255.934 26.0759 255.37C25.5599 254.794 25.3019 253.978 25.3019 252.922V247.576H26.4899V252.238C26.4899 252.706 26.5259 253.12 26.5979 253.48C26.6699 253.84 26.7899 254.146 26.9579 254.398C27.1379 254.638 27.3719 254.824 27.6599 254.956C27.9599 255.076 28.3319 255.136 28.7759 255.136C28.8359 255.136 29.0039 255.112 29.2799 255.064C29.5559 255.016 29.8439 254.884 30.1439 254.668C30.4559 254.452 30.7319 254.128 30.9719 253.696C31.2119 253.264 31.3319 252.664 31.3319 251.896V247.576H32.5199V254.146C32.5199 254.374 32.5259 254.662 32.5379 255.01C32.5619 255.358 32.5859 255.688 32.6099 256H31.3859ZM35.4298 250.204C35.4298 249.832 35.4178 249.454 35.3938 249.07C35.3818 248.686 35.3698 248.188 35.3578 247.576H36.5278V249.142H36.5638C36.6478 248.914 36.7678 248.698 36.9238 248.494C37.0798 248.278 37.2658 248.086 37.4818 247.918C37.7098 247.75 37.9678 247.618 38.2558 247.522C38.5558 247.414 38.8918 247.36 39.2638 247.36C39.5998 247.36 39.8938 247.396 40.1458 247.468L39.9118 248.638C39.7558 248.578 39.5278 248.548 39.2278 248.548C38.7718 248.548 38.3818 248.638 38.0578 248.818C37.7338 248.986 37.4638 249.208 37.2478 249.484C37.0318 249.748 36.8698 250.036 36.7618 250.348C36.6658 250.66 36.6178 250.96 36.6178 251.248V256H35.4298V250.204ZM40.708 258.52H39.502L40.708 254.29H42.166L40.708 258.52ZM57.3336 251.788C57.3336 251.32 57.2556 250.882 57.0996 250.474C56.9556 250.066 56.7456 249.712 56.4696 249.412C56.1936 249.112 55.8576 248.878 55.4616 248.71C55.0776 248.53 54.6396 248.44 54.1476 248.44C53.6556 248.44 53.2056 248.53 52.7976 248.71C52.3896 248.878 52.0356 249.112 51.7356 249.412C51.4356 249.712 51.2016 250.066 51.0336 250.474C50.8656 250.882 50.7816 251.32 50.7816 251.788C50.7816 252.256 50.8656 252.694 51.0336 253.102C51.2016 253.51 51.4356 253.864 51.7356 254.164C52.0356 254.464 52.3896 254.704 52.7976 254.884C53.2056 255.052 53.6556 255.136 54.1476 255.136C54.6396 255.136 55.0776 255.052 55.4616 254.884C55.8576 254.704 56.1936 254.464 56.4696 254.164C56.7456 253.864 56.9556 253.51 57.0996 253.102C57.2556 252.694 57.3336 252.256 57.3336 251.788ZM49.6476 242.392H50.8356V248.98H50.8716C51.0636 248.692 51.2916 248.446 51.5556 248.242C51.8196 248.038 52.0956 247.87 52.3836 247.738C52.6716 247.606 52.9656 247.51 53.2656 247.45C53.5776 247.39 53.8716 247.36 54.1476 247.36C54.8076 247.36 55.4076 247.474 55.9476 247.702C56.4996 247.918 56.9736 248.224 57.3696 248.62C57.7656 249.016 58.0716 249.484 58.2876 250.024C58.5156 250.564 58.6296 251.152 58.6296 251.788C58.6296 252.424 58.5156 253.012 58.2876 253.552C58.0716 254.092 57.7656 254.56 57.3696 254.956C56.9736 255.352 56.4996 255.664 55.9476 255.892C55.4076 256.108 54.8076 256.216 54.1476 256.216C53.8716 256.216 53.5776 256.186 53.2656 256.126C52.9656 256.066 52.6716 255.97 52.3836 255.838C52.0956 255.706 51.8196 255.538 51.5556 255.334C51.2916 255.13 51.0636 254.884 50.8716 254.596H50.8356V256H49.6476V242.392ZM60.7775 250.204C60.7775 249.832 60.7655 249.454 60.7415 249.07C60.7295 248.686 60.7175 248.188 60.7055 247.576H61.8755V249.142H61.9115C61.9955 248.914 62.1155 248.698 62.2715 248.494C62.4275 248.278 62.6135 248.086 62.8295 247.918C63.0575 247.75 63.3155 247.618 63.6035 247.522C63.9035 247.414 64.2395 247.36 64.6115 247.36C64.9475 247.36 65.2415 247.396 65.4935 247.468L65.2595 248.638C65.1035 248.578 64.8755 248.548 64.5755 248.548C64.1195 248.548 63.7295 248.638 63.4055 248.818C63.0815 248.986 62.8115 249.208 62.5955 249.484C62.3795 249.748 62.2175 250.036 62.1095 250.348C62.0135 250.66 61.9655 250.96 61.9655 251.248V256H60.7775V250.204ZM72.8636 251.14C72.8636 250.336 72.6236 249.688 72.1436 249.196C71.6636 248.692 70.9916 248.44 70.1276 248.44C69.7436 248.44 69.3716 248.518 69.0116 248.674C68.6516 248.818 68.3336 249.016 68.0576 249.268C67.7936 249.52 67.5776 249.808 67.4096 250.132C67.2536 250.456 67.1756 250.792 67.1756 251.14H72.8636ZM67.1396 252.112C67.1756 252.532 67.2776 252.928 67.4456 253.3C67.6136 253.672 67.8356 253.996 68.1116 254.272C68.3876 254.536 68.7056 254.746 69.0656 254.902C69.4256 255.058 69.8156 255.136 70.2356 255.136C70.8716 255.136 71.4176 254.992 71.8736 254.704C72.3416 254.404 72.6956 254.062 72.9356 253.678L73.8536 254.434C73.3496 255.07 72.7916 255.526 72.1796 255.802C71.5796 256.078 70.9316 256.216 70.2356 256.216C69.6116 256.216 69.0296 256.108 68.4896 255.892C67.9616 255.664 67.5056 255.352 67.1216 254.956C66.7376 254.56 66.4316 254.092 66.2036 253.552C65.9876 253.012 65.8796 252.424 65.8796 251.788C65.8796 251.152 65.9876 250.564 66.2036 250.024C66.4196 249.484 66.7196 249.016 67.1036 248.62C67.4876 248.224 67.9376 247.918 68.4536 247.702C68.9696 247.474 69.5276 247.36 70.1276 247.36C70.7636 247.36 71.3336 247.474 71.8376 247.702C72.3416 247.93 72.7616 248.236 73.0976 248.62C73.4456 248.992 73.7096 249.436 73.8896 249.952C74.0696 250.456 74.1596 250.996 74.1596 251.572V252.112H67.1396ZM76.6736 247.576L78.6176 254.416H78.6536L80.9036 247.576H82.1276L84.3776 254.416H84.4136L86.3576 247.576H87.7616L85.0976 256H83.7656L81.5336 249.088H81.4976L79.2656 256H77.9336L75.2696 247.576H76.6736ZM99.1016 251.806C98.8016 251.806 98.4236 251.824 97.9676 251.86C97.5236 251.884 97.0916 251.956 96.6716 252.076C96.2636 252.184 95.9096 252.358 95.6096 252.598C95.3216 252.838 95.1776 253.168 95.1776 253.588C95.1776 253.864 95.2316 254.104 95.3396 254.308C95.4596 254.5 95.6156 254.662 95.8076 254.794C95.9996 254.914 96.2096 255.004 96.4376 255.064C96.6776 255.112 96.9176 255.136 97.1576 255.136C97.5896 255.136 97.9616 255.064 98.2736 254.92C98.5976 254.776 98.8676 254.584 99.0836 254.344C99.2996 254.092 99.4556 253.804 99.5516 253.48C99.6596 253.144 99.7136 252.79 99.7136 252.418V251.806H99.1016ZM99.7136 250.834V250.618C99.7136 249.166 98.9936 248.44 97.5536 248.44C96.5696 248.44 95.7116 248.77 94.9796 249.43L94.2596 248.584C95.0516 247.768 96.2396 247.36 97.8236 247.36C98.2316 247.36 98.6216 247.42 98.9936 247.54C99.3776 247.66 99.7076 247.846 99.9836 248.098C100.26 248.338 100.482 248.644 100.65 249.016C100.818 249.388 100.902 249.832 100.902 250.348V254.11C100.902 254.434 100.914 254.776 100.938 255.136C100.974 255.484 101.01 255.772 101.046 256H99.8936C99.8576 255.796 99.8276 255.574 99.8036 255.334C99.7916 255.094 99.7856 254.86 99.7856 254.632H99.7496C99.4016 255.196 98.9876 255.604 98.5076 255.856C98.0396 256.096 97.4636 256.216 96.7796 256.216C96.4076 256.216 96.0476 256.162 95.6996 256.054C95.3516 255.958 95.0396 255.808 94.7636 255.604C94.4996 255.388 94.2836 255.13 94.1156 254.83C93.9596 254.518 93.8816 254.158 93.8816 253.75C93.8816 253.066 94.0556 252.532 94.4036 252.148C94.7636 251.752 95.2076 251.458 95.7356 251.266C96.2756 251.074 96.8456 250.954 97.4456 250.906C98.0576 250.858 98.6156 250.834 99.1196 250.834H99.7136ZM104.782 247.576C104.806 247.804 104.818 248.032 104.818 248.26C104.83 248.476 104.836 248.698 104.836 248.926H104.872C105.004 248.698 105.172 248.488 105.376 248.296C105.58 248.104 105.808 247.942 106.06 247.81C106.312 247.666 106.576 247.558 106.852 247.486C107.14 247.402 107.422 247.36 107.698 247.36C108.778 247.36 109.576 247.648 110.092 248.224C110.608 248.788 110.866 249.598 110.866 250.654V256H109.678V251.338C109.678 250.402 109.516 249.688 109.192 249.196C108.868 248.692 108.268 248.44 107.392 248.44C107.332 248.44 107.164 248.464 106.888 248.512C106.612 248.56 106.318 248.692 106.006 248.908C105.706 249.124 105.436 249.448 105.196 249.88C104.956 250.312 104.836 250.912 104.836 251.68V256H103.648V249.43C103.648 249.202 103.636 248.914 103.612 248.566C103.6 248.218 103.582 247.888 103.558 247.576H104.782ZM114.37 251.788C114.37 252.256 114.442 252.694 114.586 253.102C114.742 253.51 114.958 253.864 115.234 254.164C115.51 254.464 115.84 254.704 116.224 254.884C116.62 255.052 117.064 255.136 117.556 255.136C118.036 255.136 118.48 255.052 118.888 254.884C119.308 254.704 119.668 254.464 119.968 254.164C120.268 253.864 120.502 253.51 120.67 253.102C120.838 252.694 120.922 252.256 120.922 251.788C120.922 251.32 120.838 250.882 120.67 250.474C120.502 250.066 120.268 249.712 119.968 249.412C119.668 249.112 119.308 248.878 118.888 248.71C118.48 248.53 118.036 248.44 117.556 248.44C117.064 248.44 116.62 248.53 116.224 248.71C115.84 248.878 115.51 249.112 115.234 249.412C114.958 249.712 114.742 250.066 114.586 250.474C114.442 250.882 114.37 251.32 114.37 251.788ZM122.056 256H120.868V254.596H120.832C120.64 254.884 120.412 255.13 120.148 255.334C119.884 255.538 119.608 255.706 119.32 255.838C119.032 255.97 118.732 256.066 118.42 256.126C118.12 256.186 117.832 256.216 117.556 256.216C116.896 256.216 116.29 256.108 115.738 255.892C115.198 255.664 114.73 255.352 114.334 254.956C113.938 254.56 113.626 254.092 113.398 253.552C113.182 253.012 113.074 252.424 113.074 251.788C113.074 251.152 113.182 250.564 113.398 250.024C113.626 249.484 113.938 249.016 114.334 248.62C114.73 248.224 115.198 247.918 115.738 247.702C116.29 247.474 116.896 247.36 117.556 247.36C117.832 247.36 118.12 247.39 118.42 247.45C118.732 247.51 119.032 247.606 119.32 247.738C119.608 247.87 119.884 248.038 120.148 248.242C120.412 248.446 120.64 248.692 120.832 248.98H120.868V242.392H122.056V256ZM136.215 251.14C136.215 250.336 135.975 249.688 135.495 249.196C135.015 248.692 134.343 248.44 133.479 248.44C133.095 248.44 132.723 248.518 132.363 248.674C132.003 248.818 131.685 249.016 131.409 249.268C131.145 249.52 130.929 249.808 130.761 250.132C130.605 250.456 130.527 250.792 130.527 251.14H136.215ZM130.491 252.112C130.527 252.532 130.629 252.928 130.797 253.3C130.965 253.672 131.187 253.996 131.463 254.272C131.739 254.536 132.057 254.746 132.417 254.902C132.777 255.058 133.167 255.136 133.587 255.136C134.223 255.136 134.769 254.992 135.225 254.704C135.693 254.404 136.047 254.062 136.287 253.678L137.205 254.434C136.701 255.07 136.143 255.526 135.531 255.802C134.931 256.078 134.283 256.216 133.587 256.216C132.963 256.216 132.381 256.108 131.841 255.892C131.313 255.664 130.857 255.352 130.473 254.956C130.089 254.56 129.783 254.092 129.555 253.552C129.339 253.012 129.231 252.424 129.231 251.788C129.231 251.152 129.339 250.564 129.555 250.024C129.771 249.484 130.071 249.016 130.455 248.62C130.839 248.224 131.289 247.918 131.805 247.702C132.321 247.474 132.879 247.36 133.479 247.36C134.115 247.36 134.685 247.474 135.189 247.702C135.693 247.93 136.113 248.236 136.449 248.62C136.797 248.992 137.061 249.436 137.241 249.952C137.421 250.456 137.511 250.996 137.511 251.572V252.112H130.491ZM140.799 247.576C140.823 247.804 140.835 248.032 140.835 248.26C140.847 248.476 140.853 248.698 140.853 248.926H140.889C141.021 248.698 141.189 248.488 141.393 248.296C141.597 248.104 141.825 247.942 142.077 247.81C142.329 247.666 142.593 247.558 142.869 247.486C143.157 247.402 143.439 247.36 143.715 247.36C144.795 247.36 145.593 247.648 146.109 248.224C146.625 248.788 146.883 249.598 146.883 250.654V256H145.695V251.338C145.695 250.402 145.533 249.688 145.209 249.196C144.885 248.692 144.285 248.44 143.409 248.44C143.349 248.44 143.181 248.464 142.905 248.512C142.629 248.56 142.335 248.692 142.023 248.908C141.723 249.124 141.453 249.448 141.213 249.88C140.973 250.312 140.853 250.912 140.853 251.68V256H139.665V249.43C139.665 249.202 139.653 248.914 139.629 248.566C139.617 248.218 139.599 247.888 139.575 247.576H140.799ZM151.395 244.336C151.395 244.588 151.305 244.798 151.125 244.966C150.945 245.122 150.747 245.2 150.531 245.2C150.315 245.2 150.117 245.122 149.937 244.966C149.757 244.798 149.667 244.588 149.667 244.336C149.667 244.084 149.757 243.88 149.937 243.724C150.117 243.556 150.315 243.472 150.531 243.472C150.747 243.472 150.945 243.556 151.125 243.724C151.305 243.88 151.395 244.084 151.395 244.336ZM147.975 259.114L148.029 259.132C148.125 259.156 148.233 259.18 148.353 259.204C148.461 259.228 148.563 259.24 148.659 259.24C148.947 259.24 149.175 259.186 149.343 259.078C149.523 258.97 149.655 258.826 149.739 258.646C149.823 258.478 149.877 258.292 149.901 258.088C149.925 257.884 149.937 257.68 149.937 257.476V247.576H151.125V257.674C151.125 257.794 151.119 257.998 151.107 258.286C151.095 258.586 151.017 258.886 150.873 259.186C150.741 259.486 150.507 259.75 150.171 259.978C149.847 260.206 149.373 260.32 148.749 260.32C148.413 260.32 148.101 260.26 147.813 260.14L147.975 259.114ZM161.209 251.788C161.209 251.32 161.131 250.882 160.975 250.474C160.831 250.066 160.621 249.712 160.345 249.412C160.069 249.112 159.733 248.878 159.337 248.71C158.953 248.53 158.515 248.44 158.023 248.44C157.531 248.44 157.087 248.53 156.691 248.71C156.307 248.878 155.977 249.112 155.701 249.412C155.437 249.712 155.227 250.066 155.071 250.474C154.927 250.882 154.855 251.32 154.855 251.788C154.855 252.256 154.927 252.694 155.071 253.102C155.227 253.51 155.437 253.864 155.701 254.164C155.977 254.464 156.307 254.704 156.691 254.884C157.087 255.052 157.531 255.136 158.023 255.136C158.515 255.136 158.953 255.052 159.337 254.884C159.733 254.704 160.069 254.464 160.345 254.164C160.621 253.864 160.831 253.51 160.975 253.102C161.131 252.694 161.209 252.256 161.209 251.788ZM162.505 251.788C162.505 252.424 162.391 253.012 162.163 253.552C161.947 254.092 161.641 254.56 161.245 254.956C160.849 255.352 160.375 255.664 159.823 255.892C159.283 256.108 158.683 256.216 158.023 256.216C157.375 256.216 156.775 256.108 156.223 255.892C155.683 255.664 155.215 255.352 154.819 254.956C154.423 254.56 154.111 254.092 153.883 253.552C153.667 253.012 153.559 252.424 153.559 251.788C153.559 251.152 153.667 250.564 153.883 250.024C154.111 249.484 154.423 249.016 154.819 248.62C155.215 248.224 155.683 247.918 156.223 247.702C156.775 247.474 157.375 247.36 158.023 247.36C158.683 247.36 159.283 247.474 159.823 247.702C160.375 247.918 160.849 248.224 161.245 248.62C161.641 249.016 161.947 249.484 162.163 250.024C162.391 250.564 162.505 251.152 162.505 251.788ZM167.793 254.542L170.367 247.576H171.807L167.595 258.196C167.343 258.844 167.019 259.36 166.623 259.744C166.239 260.128 165.681 260.32 164.949 260.32C164.769 260.32 164.583 260.314 164.391 260.302C164.211 260.29 164.031 260.254 163.851 260.194L163.977 259.042C164.229 259.174 164.529 259.24 164.877 259.24C165.297 259.24 165.627 259.108 165.867 258.844C166.107 258.58 166.317 258.208 166.497 257.728L167.109 256.108L163.653 247.576H165.147L167.793 254.542Z" fill="black"/>
</svg>
